<svg xmlns="http://www.w3.org/2000/svg" width="24" height="24" viewBox="0 0 24 24" fill="none">
    <path d="M7.99844 17.1992H6.39844V17.9992H7.99844V17.1992Z" fill="#3C403D"/>
    <path d="M14.4008 17.1992H12.8008V17.9992H14.4008V17.1992Z" fill="#3C403D"/>
    <path d="M14.4016 21.1992H13.6016V21.9992H14.4016V21.1992Z" fill="#3C403D"/>
    <path d="M4.8 21.1992H4V21.9992H4.8V21.1992Z" fill="#3C403D"/>
    <path d="M22.8 0H7.6C7.28174 0 6.97652 0.126428 6.75147 0.351472C6.52643 0.576516 6.4 0.88174 6.4 1.2V12.8596L4.208 15.6H0.8C0.587827 15.6 0.384344 15.6843 0.234315 15.8343C0.0842854 15.9843 0 16.1878 0 16.4V21.2C0 21.4122 0.0842854 21.6157 0.234315 21.7657C0.384344 21.9157 0.587827 22 0.8 22H2.036C2.11595 22.4764 2.33798 22.9175 2.673 23.2654C3.00802 23.6134 3.44038 23.852 3.91338 23.95C4.38638 24.0479 4.87794 24.0007 5.32361 23.8144C5.76927 23.6281 6.14823 23.3114 6.4108 22.906C6.43667 23.2039 6.57303 23.4813 6.79309 23.6838C7.01315 23.8862 7.30099 23.999 7.6 24H22.8C23.1183 24 23.4235 23.8736 23.6485 23.6485C23.8736 23.4235 24 23.1183 24 22.8V1.2C24 0.88174 23.8736 0.576516 23.6485 0.351472C23.4235 0.126428 23.1183 0 22.8 0ZM20 0.8H21.6V3.2L21.12 2.56C21.0811 2.51275 21.0323 2.4747 20.9769 2.44857C20.9216 2.42245 20.8612 2.4089 20.8 2.4089C20.7388 2.4089 20.6784 2.42245 20.6231 2.44857C20.5677 2.4747 20.5189 2.51275 20.48 2.56L20 3.2V0.8ZM16.364 21.2C16.27 20.641 15.9809 20.1334 15.5481 19.7673C15.1154 19.4013 14.5668 19.2004 14 19.2004C13.4332 19.2004 12.8846 19.4013 12.4519 19.7673C12.0191 20.1334 11.73 20.641 11.636 21.2H9.6V16.4H14.4C14.4724 16.4 14.5435 16.3804 14.6056 16.3432C14.6677 16.3059 14.7186 16.2526 14.7527 16.1887C14.7869 16.1249 14.8031 16.0529 14.7996 15.9806C14.7961 15.9083 14.773 15.8382 14.7328 15.778L13.1328 13.378C13.0963 13.3232 13.0468 13.2783 12.9887 13.2473C12.9307 13.2162 12.8658 13.2 12.8 13.2H7.152L7.672 12.5504C7.70945 12.5035 7.75698 12.4656 7.81106 12.4396C7.86514 12.4136 7.92438 12.4 7.9844 12.4H13.1844C13.2486 12.4001 13.3119 12.4156 13.3688 12.4452C13.4258 12.4749 13.4747 12.5178 13.5116 12.5704L15.9516 16.0588C16.0255 16.1644 16.1238 16.2505 16.2382 16.3099C16.3525 16.3693 16.4795 16.4002 16.6084 16.4H17.6V21.2H16.364ZM12.4 21.6C12.4 21.2836 12.4938 20.9742 12.6696 20.7111C12.8455 20.448 13.0953 20.2429 13.3877 20.1218C13.6801 20.0007 14.0018 19.969 14.3121 20.0307C14.6225 20.0925 14.9076 20.2449 15.1314 20.4686C15.3551 20.6924 15.5075 20.9775 15.5693 21.2879C15.631 21.5982 15.5993 21.9199 15.4782 22.2123C15.3571 22.5047 15.152 22.7545 14.8889 22.9304C14.6258 23.1062 14.3165 23.2 14 23.2C13.5757 23.2 13.1687 23.0314 12.8686 22.7314C12.5686 22.4313 12.4 22.0243 12.4 21.6ZM12.586 14L13.6528 15.6H9.6V14H12.586ZM6.512 14H8.8V15.6H5.232L6.512 14ZM0.8 18H1.6V18.8H0.8V18ZM4.4 23.2C4.08355 23.2 3.77421 23.1062 3.51109 22.9304C3.24797 22.7545 3.04289 22.5047 2.92179 22.2123C2.80069 21.9199 2.76901 21.5982 2.83074 21.2879C2.89248 20.9775 3.04487 20.6924 3.26863 20.4686C3.49239 20.2449 3.77749 20.0925 4.08786 20.0307C4.39823 19.969 4.71993 20.0007 5.01229 20.1218C5.30466 20.2429 5.55454 20.448 5.73035 20.7111C5.90616 20.9742 6 21.2836 6 21.6C6 22.0243 5.83143 22.4313 5.53137 22.7314C5.23131 23.0314 4.82435 23.2 4.4 23.2ZM4.4 19.2C3.83338 19.2011 3.28537 19.4023 2.85279 19.7683C2.42021 20.1343 2.13091 20.6414 2.036 21.2H0.8V19.6H2C2.10609 19.6 2.20783 19.5579 2.28284 19.4828C2.35786 19.4078 2.4 19.3061 2.4 19.2V17.6C2.4 17.4939 2.35786 17.3922 2.28284 17.3172C2.20783 17.2421 2.10609 17.2 2 17.2H0.8V16.4H8.8V21.2H6.764C6.66909 20.6414 6.37979 20.1343 5.94721 19.7683C5.51463 19.4023 4.96662 19.2011 4.4 19.2ZM7.2 22.8V22H11.636C11.7117 22.4469 11.9129 22.863 12.216 23.2H7.6C7.49391 23.2 7.39217 23.1579 7.31716 23.0828C7.24214 23.0078 7.2 22.9061 7.2 22.8ZM23.2 22.8C23.2 22.9061 23.1579 23.0078 23.0828 23.0828C23.0078 23.1579 22.9061 23.2 22.8 23.2H15.784C16.0871 22.863 16.2883 22.4469 16.364 22H17.6C17.8122 22 18.0157 21.9157 18.1657 21.7657C18.3157 21.6157 18.4 21.4122 18.4 21.2V16.4C18.4 16.1878 18.3157 15.9843 18.1657 15.8343C18.0157 15.6843 17.8122 15.6 17.6 15.6H16.6084L14.1664 12.112C14.0558 11.9539 13.9087 11.8249 13.7376 11.7358C13.5666 11.6466 13.3765 11.6001 13.1836 11.6H7.9836C7.69483 11.601 7.41631 11.7071 7.2 11.8984V1.2C7.2 1.09391 7.24214 0.992172 7.31716 0.917157C7.39217 0.842143 7.49391 0.8 7.6 0.8H19.2V4.4C19.2 4.48395 19.2264 4.56578 19.2755 4.63388C19.3246 4.70199 19.3939 4.75293 19.4735 4.77947C19.5532 4.80602 19.6391 4.80684 19.7193 4.78181C19.7994 4.75677 19.8696 4.70716 19.92 4.64L20.8 3.4668L21.68 4.64C21.7173 4.68968 21.7656 4.73 21.8211 4.75777C21.8767 4.78554 21.9379 4.8 22 4.8C22.0429 4.7999 22.0856 4.79302 22.1264 4.7796C22.2061 4.75306 22.2754 4.70211 22.3245 4.63398C22.3736 4.56585 22.4 4.48399 22.4 4.4V0.8H22.8C22.9061 0.8 23.0078 0.842143 23.0828 0.917157C23.1579 0.992172 23.2 1.09391 23.2 1.2V22.8Z" fill="#3C403D"/>
    <path d="M11.3788 8.73319C11.4445 8.77705 11.5218 8.80045 11.6008 8.80045C11.6798 8.80045 11.7571 8.77705 11.8228 8.73319L13.51 7.60839C13.7843 7.42608 14.0093 7.17867 14.1647 6.88824C14.3202 6.59781 14.4013 6.2734 14.4008 5.94399V2.80039C14.4008 2.6943 14.3586 2.59256 14.2836 2.51755C14.2086 2.44253 14.1069 2.40039 14.0008 2.40039H9.20078C9.0947 2.40039 8.99295 2.44253 8.91794 2.51755C8.84292 2.59256 8.80078 2.6943 8.80078 2.80039V5.94399C8.80047 6.27337 8.88165 6.59771 9.03707 6.88811C9.1925 7.17851 9.41734 7.42595 9.69158 7.60839L11.3788 8.73319ZM9.60078 3.20039H13.6008V5.94399C13.6014 6.14187 13.5528 6.3368 13.4596 6.51132C13.3663 6.68584 13.2312 6.8345 13.0664 6.94399L11.6008 7.92039L10.1352 6.94319C9.97052 6.83372 9.83553 6.68518 9.74228 6.51082C9.64903 6.33646 9.60042 6.14172 9.60078 5.94399V3.20039Z" fill="#3C403D"/>
    <path d="M11.2 6.39999C11.3061 6.39996 11.4078 6.35781 11.4828 6.28279L13.0828 4.68279L12.5172 4.11719L11.2 5.43439L10.6828 4.91719L10.1172 5.48279L10.9172 6.28279C10.9922 6.35781 11.0939 6.39996 11.2 6.39999Z" fill="#3C403D"/>
    <path d="M20.8 8H16V8.8H20.8V8Z" fill="#3C403D"/>
    <path d="M17.6 6.40039H16V7.20039H17.6V6.40039Z" fill="#3C403D"/>
    <path d="M20.7984 6.40039H18.3984V7.20039H20.7984V6.40039Z" fill="#3C403D"/>
    <path d="M20.8016 9.59961H9.60156V10.3996H20.8016V9.59961Z" fill="#3C403D"/>
    <path d="M20.8016 11.1992H17.6016V11.9992H20.8016V11.1992Z" fill="#3C403D"/>
    <path d="M16.7992 11.1992H15.1992V11.9992H16.7992V11.1992Z" fill="#3C403D"/>
    <path d="M20.8 12.8008H16V13.6008H20.8V12.8008Z" fill="#3C403D"/>
</svg>
