<svg width="384" height="116" viewBox="0 0 384 116" fill="none" xmlns="http://www.w3.org/2000/svg">
<g clip-path="url(#clip0_2320_17682)">
<path d="M85.2849 23.563C82.3708 24.9051 79.6002 26.3026 76.9621 27.7334L78.386 28.8758C78.386 28.8758 57.4133 62.3274 56.9276 64.7121C56.453 67.0967 48.8365 67.1189 48.8365 67.1189V37.7156L50.5254 36.1628C50.404 35.9521 50.2826 35.7413 50.1611 35.5306C54.3226 29.63 59.8417 22.8199 66.9503 16.2205C75.2622 8.51199 83.2208 3.43213 89.645 0.0603509C90.2963 -0.283482 90.6716 0.958753 90.6716 0.958753C92.526 3.42104 90.7047 7.54704 91.0138 12.15C91.1462 14.0799 91.6871 16.7973 93.6519 19.9916C90.9255 21.0674 88.1217 22.2542 85.2849 23.563Z" fill="#A3E8CA"/>
<path d="M123.345 54.752C122.407 53.1327 118.587 53.6429 115.574 54.2085C108.708 55.484 103.597 57.4805 102.229 58.035C98.7074 59.4326 94.2148 61.2959 89.0379 63.6473C89.0379 63.6473 89.0379 63.6473 89.0379 63.6362C93.5967 58.3123 98.0562 55.6615 101.257 54.2196C107.097 51.591 117.395 49.0732 120.751 45.169C121.954 43.7715 122.716 41.7973 122.716 41.7973C123.952 39.091 124.327 36.6287 124.449 35.0204C124.449 34.4215 123.974 33.9335 123.367 33.9113C113.764 33.5342 103.012 38.1704 100.109 39.5235C100.098 39.5235 100.087 39.5235 100.076 39.5235C100.076 39.5235 100.021 39.5124 100.01 39.3571C99.9989 39.2351 101.787 35.2866 111.269 30.8168C116.06 28.5652 121.413 26.8239 121.998 24.1065C122.042 23.9068 122.274 23.1526 122.296 22.3208C122.329 21.1673 122.44 19.8363 122.705 18.3944C123.124 16.154 123.786 14.2906 124.416 12.8487C124.393 12.6047 124.305 12.2387 124.018 11.9947C123.775 11.795 123.455 11.6952 123.113 11.7507C117.439 12.7489 110.883 14.213 103.719 16.4645C100.463 17.4849 97.0848 18.6606 93.6077 20.0249C90.8813 21.1007 88.0776 22.2875 85.2407 23.5963C79.9755 26.0364 75.1628 28.6207 70.7916 31.2383C58.7268 38.4809 51.0552 51.2915 50.4591 65.3665C50.4481 65.6548 50.4371 65.8434 50.4371 65.9099C49.7417 59.3106 50.3929 53.0106 51.8831 47.1544C52.8545 43.339 52.3577 39.3017 50.3488 35.9299L50.117 35.5528C49.4215 34.4104 48.6047 33.2347 47.6223 32.1034C47.0262 31.4157 46.375 30.7391 45.6575 30.0847C41.5623 26.3691 37.0808 24.7942 32.0804 24.7942C31.4513 24.7942 30.8331 24.8274 30.226 24.8829C24.6738 25.4042 20.1812 27.7334 17.6313 29.1087C16.4613 29.7409 16.4944 29.7853 15.4126 30.3398C12.4654 31.8594 10.3571 32.4805 8.50269 33.146C4.21985 34.6655 0.577217 35.9632 0.610331 37.1943C0.676561 39.3682 11.9025 37.1721 17.6093 43.5053C22.6648 49.1065 19.6955 55.8611 21.1084 67.1965C23.7797 88.5586 39.6527 102.179 41.4188 103.665C51.6954 112.272 63.1973 115.056 70.7144 115.999C70.8799 116.021 70.9572 115.799 70.8137 115.71C68.0652 114.102 64.7427 111.773 61.4533 108.445C55.7906 102.722 52.8324 96.6885 51.3091 92.7955C53.0531 95.3132 55.4816 98.2413 58.8262 101.036C60.228 102.212 62.535 104.12 65.979 105.817C69.1469 107.381 72.911 109.233 76.94 108.678C81.2449 108.09 84.1369 105.018 86.0024 102.944C100.142 87.2498 104.138 75.8367 116.037 68.0617C117.748 66.9414 118.93 66.0319 120.111 65.2999C122.351 63.9024 123.731 61.4845 123.676 58.8336C123.676 58.7338 123.676 58.6229 123.676 58.512C123.61 56.2604 123.566 55.1291 123.345 54.752ZM42.4122 41.276C44.3329 46.0231 39.6968 50.6704 34.9614 48.7405C33.5706 48.1748 32.4337 47.0324 31.8707 45.6349C29.95 40.8878 34.5861 36.2405 39.3215 38.1704C40.7124 38.736 41.8493 39.8784 42.4122 41.276Z" fill="#05BD6E"/>
<path d="M222.482 16.1685C221.155 16.1685 219.992 17.0311 219.629 18.2761L203.153 74.2646H202.199L185.723 18.2761C185.36 17.0311 184.187 16.1685 182.87 16.1685H165.458C163.895 16.1685 162.595 17.3601 162.486 18.8897L157.27 96.7276C157.161 98.4084 158.515 99.8312 160.242 99.8312H170.956C172.528 99.8312 173.828 98.6396 173.928 97.1011L177.581 39.7342H178.399L195.429 97.7236C195.792 98.9686 196.964 99.8312 198.291 99.8312H207.07C208.397 99.8312 209.569 98.9686 209.932 97.7147L226.826 39.7342H227.78L231.433 97.1011C231.533 98.6307 232.833 99.8312 234.405 99.8312H245.119C246.837 99.8312 248.2 98.4084 248.091 96.7276L242.875 18.8897C242.775 17.3601 241.475 16.1685 239.903 16.1685H222.491H222.482Z" fill="#424063"/>
<path d="M279.541 47.8032L267.584 17.965C267.147 16.88 266.127 16.1685 264.995 16.1685H254.684C252.653 16.1685 251.29 18.3474 252.121 20.2685L273.969 70.8823C274.132 71.2558 274.218 71.665 274.218 72.0741V96.923C274.218 98.5327 275.478 99.8312 277.021 99.8312H287.281C288.832 99.8312 290.083 98.5238 290.083 96.923V72.0741C290.083 71.665 290.169 71.2558 290.332 70.8823L312.18 20.2685C313.012 18.3474 311.657 16.1685 309.617 16.1685H299.186C298.055 16.1685 297.026 16.88 296.598 17.965L284.726 47.7855C283.775 50.1779 280.501 50.1868 279.541 47.7855V47.8032Z" fill="#424063"/>
<path d="M383.68 95.6601L371.716 71.6383C371.054 70.3131 371.532 68.7212 372.819 67.9207C374.105 67.1203 375.143 66.2576 376.081 65.2259C379.857 61.0815 381.75 54.3668 381.75 45.0818C381.75 37.9402 380.896 32.2749 379.196 28.086C377.487 23.8882 374.721 20.8554 370.898 18.9789C367.076 17.1023 361.93 16.1685 355.479 16.1685H322.666C321.002 16.1685 319.661 17.4758 319.661 19.0767V96.923C319.661 98.5327 321.012 99.8312 322.666 99.8312H333.665C335.328 99.8312 336.67 98.5238 336.67 96.923V74.3686C336.67 72.7589 338.02 71.4604 339.674 71.4604H351.454C352.621 71.4604 353.678 72.1096 354.174 73.1235L366.423 98.1681C366.919 99.182 367.976 99.8312 369.143 99.8312H380.988C383.202 99.8312 384.663 97.59 383.698 95.6601H383.68ZM336.66 32.7374C336.66 31.1276 338.011 29.8292 339.665 29.8292H355.332C358.557 29.8292 360.79 30.2294 362.04 31.0387C363.281 31.8391 363.905 33.3155 363.905 35.4588V53.264C363.905 55.4073 363.281 56.8748 362.04 57.6841C360.79 58.4845 358.557 58.8848 355.332 58.8848H339.665C338.002 58.8848 336.66 57.5774 336.66 55.9765V32.7463V32.7374Z" fill="#424063"/>
</g>
<defs>
<clipPath id="clip0_2320_17682">
<rect width="383.39" height="116" fill="white" transform="translate(0.610107)"/>
</clipPath>
</defs>
</svg>
