<svg xmlns="http://www.w3.org/2000/svg" width="37" height="35" viewBox="0 0 37 35" fill="none">
    <path d="M36.6776 2.56575C36.6776 2.45611 36.631 2.35097 36.5481 2.27344C36.4651 2.19592 36.3525 2.15236 36.2352 2.15236H34.4205C34.3149 1.55185 33.9846 1.00584 33.4883 0.611658C32.9921 0.217471 32.3621 0.000709415 31.7108 0C30.348 0 29.2229 0.934803 29.0099 2.15236H25.666C25.5605 1.55185 25.2302 1.00584 24.7339 0.611658C24.2377 0.217471 23.6077 0.000709415 22.9563 0C21.5935 0 20.4685 0.934803 20.2549 2.15236H16.911C16.8055 1.55185 16.4752 1.00584 15.9789 0.611658C15.4826 0.217471 14.8527 0.000709415 14.2013 0C12.8385 0 11.7135 0.934803 11.4999 2.15236H8.156C8.05047 1.55185 7.72014 1.00584 7.22388 0.611658C6.72763 0.217471 6.09768 0.000709415 5.44631 0C4.0835 0 2.95845 0.934803 2.74488 2.15236H0.930752C0.813401 2.15236 0.700857 2.19592 0.617878 2.27344C0.534898 2.35097 0.488281 2.45611 0.488281 2.56575L0.489461 22.8283C0.489461 22.8338 0.492411 22.8382 0.492411 22.8437C0.491301 22.8982 0.501843 22.9523 0.523421 23.003C0.544999 23.0536 0.577178 23.0997 0.618072 23.1386L5.68878 27.8688C5.72955 27.9109 5.77924 27.9446 5.8347 27.9677C5.89015 27.9909 5.95016 28.003 6.0109 28.0033H20.4708C20.7027 31.8968 24.1563 35 28.381 35C32.6093 35 36.0653 31.8913 36.2912 27.9923C36.3973 27.9809 36.4953 27.9336 36.5667 27.8594C36.6381 27.7852 36.6779 27.6891 36.6788 27.5894L36.6776 2.56575ZM20.4714 27.176H6.4575V22.8465C6.45738 22.7911 6.44534 22.7364 6.42211 22.6855C6.39144 22.6065 6.33557 22.5382 6.26204 22.4898C6.1885 22.4414 6.10085 22.4153 6.0109 22.4149H1.37381V7.17087H35.7939V24.9751C34.6594 22.1768 31.7692 20.1776 28.381 20.1776C24.1563 20.1776 20.7021 23.2824 20.4708 27.1765L20.4714 27.176ZM31.7102 0.826772C32.1271 0.827067 32.532 0.957747 32.8603 1.19799C33.1885 1.43822 33.4212 1.7742 33.5214 2.15236H29.9084C30.007 1.7751 30.2381 1.43956 30.5646 1.1993C30.8912 0.95903 31.2945 0.827879 31.7102 0.826772ZM22.9552 0.826772C23.3721 0.827067 23.777 0.957747 24.1052 1.19799C24.4335 1.43822 24.6662 1.7742 24.7663 2.15236H21.1534C21.2521 1.77501 21.4832 1.4394 21.8099 1.19913C22.1365 0.958851 22.5394 0.827756 22.9552 0.826772ZM14.2001 0.826772C14.6171 0.827067 15.022 0.957747 15.3502 1.19799C15.6785 1.43822 15.9112 1.7742 16.0113 2.15236H12.3984C12.497 1.77501 12.7282 1.4394 13.0548 1.19913C13.3815 0.958851 13.7844 0.827756 14.2001 0.826772ZM5.44513 0.826772C5.8621 0.827067 6.26697 0.957747 6.59521 1.19799C6.92346 1.43822 7.15618 1.7742 7.25631 2.15236H3.64398C3.74262 1.77501 3.97372 1.4394 4.30041 1.19913C4.6271 0.958851 5.03054 0.827756 5.44631 0.826772H5.44513ZM7.25631 2.97913C7.15618 3.3573 6.92346 3.69327 6.59521 3.93351C6.26697 4.17375 5.8621 4.30443 5.44513 4.30472C5.32778 4.30472 5.21524 4.34828 5.13226 4.4258C5.04928 4.50333 5.00266 4.60847 5.00266 4.71811C5.00266 4.82775 5.04928 4.93289 5.13226 5.01042C5.21524 5.08794 5.32778 5.1315 5.44513 5.1315C6.0966 5.13092 6.72669 4.91421 7.22307 4.52002C7.71945 4.12582 8.04986 3.57974 8.15541 2.97913H16.0113C15.9112 3.35712 15.6787 3.69295 15.3507 3.93317C15.0227 4.17339 14.6181 4.30418 14.2013 4.30472C14.084 4.30472 13.9714 4.34828 13.8885 4.4258C13.8055 4.50333 13.7589 4.60847 13.7589 4.71811C13.7589 4.82775 13.8055 4.93289 13.8885 5.01042C13.9714 5.08794 14.084 5.1315 14.2013 5.1315C14.8527 5.13079 15.4826 4.91402 15.9789 4.51984C16.4752 4.12565 16.8055 3.57965 16.911 2.97913H24.7663C24.6663 3.35712 24.4337 3.69295 24.1057 3.93317C23.7777 4.17339 23.3731 4.30418 22.9563 4.30472C22.839 4.30472 22.7264 4.34828 22.6435 4.4258C22.5605 4.50333 22.5139 4.60847 22.5139 4.71811C22.5139 4.82775 22.5605 4.93289 22.6435 5.01042C22.7264 5.08794 22.839 5.1315 22.9563 5.1315C23.6077 5.13079 24.2377 4.91402 24.7339 4.51984C25.2302 4.12565 25.5605 3.57965 25.666 2.97913H33.5214C33.4213 3.35721 33.1886 3.69311 32.8605 3.93334C32.5324 4.17357 32.1276 4.30431 31.7108 4.30472C31.5934 4.30472 31.4809 4.34828 31.3979 4.4258C31.3149 4.50333 31.2683 4.60847 31.2683 4.71811C31.2683 4.82775 31.3149 4.93289 31.3979 5.01042C31.4809 5.08794 31.5934 5.1315 31.7108 5.1315C32.3621 5.13079 32.9921 4.91402 33.4883 4.51984C33.9846 4.12565 34.3149 3.57965 34.4205 2.97913H35.7927V6.34299H1.37322V2.97913H7.25631ZM5.56784 23.2598V26.589L1.99976 23.2598H5.56784ZM28.3804 34.1732C24.4944 34.1732 21.3328 31.22 21.3328 27.5894C21.3328 23.9587 24.4944 21.0044 28.3804 21.0044C32.2665 21.0044 35.4275 23.9587 35.4275 27.5894C35.4275 31.22 32.2665 34.1732 28.3804 34.1732Z" fill="#149ADE"/>
    <path d="M13.5866 8.40625H9.95065C9.8333 8.40625 9.72075 8.4498 9.63777 8.52733C9.5548 8.60485 9.50818 8.71 9.50818 8.81964V11.6819C9.50818 11.9101 9.7064 12.0953 9.95065 12.0953H13.5866C13.7039 12.0953 13.8165 12.0518 13.8995 11.9742C13.9824 11.8967 14.029 11.7916 14.029 11.6819V8.81964C14.029 8.71 13.9824 8.60485 13.8995 8.52733C13.8165 8.4498 13.7039 8.40625 13.5866 8.40625ZM13.1441 11.2685H10.3931V9.23302H13.1441V11.2685ZM20.3994 8.40625H16.7629C16.6456 8.40625 16.533 8.4498 16.4501 8.52733C16.3671 8.60485 16.3205 8.71 16.3205 8.81964V11.6819C16.3205 11.9101 16.5187 12.0953 16.7629 12.0953H20.3994C20.5168 12.0953 20.6293 12.0518 20.7123 11.9742C20.7953 11.8967 20.8419 11.7916 20.8419 11.6819V8.81964C20.8419 8.71 20.7953 8.60485 20.7123 8.52733C20.6293 8.4498 20.5168 8.40625 20.3994 8.40625ZM19.957 11.2685H17.2054V9.23302H19.957V11.2685ZM23.5752 12.0953H27.2117C27.3291 12.0953 27.4416 12.0518 27.5246 11.9742C27.6076 11.8967 27.6542 11.7916 27.6542 11.6819V8.81964C27.6542 8.71 27.6076 8.60485 27.5246 8.52733C27.4416 8.4498 27.3291 8.40625 27.2117 8.40625H23.5752C23.4578 8.40625 23.3453 8.4498 23.2623 8.52733C23.1793 8.60485 23.1327 8.71 23.1327 8.81964V11.6819C23.1327 11.9101 23.331 12.0953 23.5752 12.0953ZM24.0177 9.23302H26.7692V11.2685H24.0177V9.23302ZM30.3875 12.0953H34.024C34.1413 12.0953 34.2539 12.0518 34.3369 11.9742C34.4198 11.8967 34.4665 11.7916 34.4665 11.6819V8.81964C34.4665 8.71 34.4198 8.60485 34.3369 8.52733C34.2539 8.4498 34.1413 8.40625 34.024 8.40625H30.3875C30.2701 8.40625 30.1576 8.4498 30.0746 8.52733C29.9916 8.60485 29.945 8.71 29.945 8.81964V11.6819C29.945 11.9101 30.1432 12.0953 30.3875 12.0953ZM30.8299 9.23302H33.5815V11.2685H30.8299V9.23302ZM6.7743 13.8971H3.13778C3.02043 13.8971 2.90789 13.9407 2.82491 14.0182C2.74193 14.0957 2.69531 14.2009 2.69531 14.3105V17.1728C2.69531 17.401 2.89354 17.5862 3.13778 17.5862H6.7743C6.89165 17.5862 7.00419 17.5426 7.08717 17.4651C7.17015 17.3876 7.21677 17.2824 7.21677 17.1728V14.3105C7.21677 14.2009 7.17015 14.0957 7.08717 14.0182C7.00419 13.9407 6.89165 13.8971 6.7743 13.8971ZM6.33183 16.7594H3.58025V14.7239H6.33183V16.7594ZM13.5866 13.8971H9.95065C9.8333 13.8971 9.72075 13.9407 9.63777 14.0182C9.5548 14.0957 9.50818 14.2009 9.50818 14.3105V17.1728C9.50818 17.401 9.7064 17.5862 9.95065 17.5862H13.5866C13.7039 17.5862 13.8165 17.5426 13.8995 17.4651C13.9824 17.3876 14.029 17.2824 14.029 17.1728V14.3105C14.029 14.2009 13.9824 14.0957 13.8995 14.0182C13.8165 13.9407 13.7039 13.8971 13.5866 13.8971ZM13.1441 16.7594H10.3931V14.7239H13.1441V16.7594ZM20.3994 13.8971H16.7629C16.6456 13.8971 16.533 13.9407 16.4501 14.0182C16.3671 14.0957 16.3205 14.2009 16.3205 14.3105V17.1728C16.3205 17.401 16.5187 17.5862 16.7629 17.5862H20.3994C20.5168 17.5862 20.6293 17.5426 20.7123 17.4651C20.7953 17.3876 20.8419 17.2824 20.8419 17.1728V14.3105C20.8419 14.2009 20.7953 14.0957 20.7123 14.0182C20.6293 13.9407 20.5168 13.8971 20.3994 13.8971ZM19.957 16.7594H17.2054V14.7239H19.957V16.7594ZM23.5752 17.5862H27.2117C27.3291 17.5862 27.4416 17.5426 27.5246 17.4651C27.6076 17.3876 27.6542 17.2824 27.6542 17.1728V14.3105C27.6542 14.2009 27.6076 14.0957 27.5246 14.0182C27.4416 13.9407 27.3291 13.8971 27.2117 13.8971H23.5752C23.4578 13.8971 23.3453 13.9407 23.2623 14.0182C23.1793 14.0957 23.1327 14.2009 23.1327 14.3105V17.1728C23.1327 17.401 23.331 17.5862 23.5752 17.5862ZM24.0177 14.7239H26.7692V16.7594H24.0177V14.7239ZM30.3875 17.5862H34.024C34.1413 17.5862 34.2539 17.5426 34.3369 17.4651C34.4198 17.3876 34.4665 17.2824 34.4665 17.1728V14.3105C34.4665 14.2009 34.4198 14.0957 34.3369 14.0182C34.2539 13.9407 34.1413 13.8971 34.024 13.8971H30.3875C30.2701 13.8971 30.1576 13.9407 30.0746 14.0182C29.9916 14.0957 29.945 14.2009 29.945 14.3105V17.1728C29.945 17.401 30.1432 17.5862 30.3875 17.5862ZM30.8299 14.7239H33.5815V16.7594H30.8299V14.7239ZM13.5866 18.8555H9.95065C9.8333 18.8555 9.72075 18.8991 9.63777 18.9766C9.5548 19.0541 9.50818 19.1593 9.50818 19.2689V22.1312C9.50818 22.3594 9.7064 22.5446 9.95065 22.5446H13.5866C13.7039 22.5446 13.8165 22.501 13.8995 22.4235C13.9824 22.346 14.029 22.2408 14.029 22.1312V19.2689C14.029 19.1593 13.9824 19.0541 13.8995 18.9766C13.8165 18.8991 13.7039 18.8555 13.5866 18.8555ZM13.1441 21.7178H10.3931V19.6823H13.1441V21.7178ZM20.3994 18.8555H16.7629C16.6456 18.8555 16.533 18.8991 16.4501 18.9766C16.3671 19.0541 16.3205 19.1593 16.3205 19.2689V22.1312C16.3205 22.3594 16.5187 22.5446 16.7629 22.5446H20.3994C20.5168 22.5446 20.6293 22.501 20.7123 22.4235C20.7953 22.346 20.8419 22.2408 20.8419 22.1312V19.2689C20.8419 19.1593 20.7953 19.0541 20.7123 18.9766C20.6293 18.8991 20.5168 18.8555 20.3994 18.8555ZM19.957 21.7178H17.2054V19.6823H19.957V21.7178ZM32.5526 23.9771C32.4964 23.963 32.4378 23.9594 32.3801 23.9665C32.3224 23.9736 32.2667 23.9912 32.2164 24.0185L29.6736 25.3909V22.7342C29.6736 22.6246 29.627 22.5194 29.544 22.4419C29.461 22.3644 29.3485 22.3208 29.2312 22.3208H27.2601C27.1427 22.3208 27.0302 22.3644 26.9472 22.4419C26.8642 22.5194 26.8176 22.6246 26.8176 22.7342V25.0916L24.5593 23.874C24.4578 23.8194 24.3373 23.8046 24.2242 23.8328C24.1111 23.861 24.0145 23.9299 23.9557 24.0245L22.9705 25.6108C22.941 25.6578 22.9218 25.7097 22.914 25.7636C22.9061 25.8175 22.9098 25.8724 22.9248 25.925C22.9397 25.9775 22.9657 26.0268 23.0012 26.07C23.0367 26.1131 23.081 26.1493 23.1315 26.1763L25.6749 27.5493L23.2147 28.8777C23.1642 28.9047 23.1199 28.9409 23.0844 28.984C23.0489 29.0272 23.0229 29.0765 23.008 29.129C22.993 29.1816 22.9893 29.2365 22.9972 29.2904C23.005 29.3443 23.0242 29.3962 23.0537 29.4432L24.0389 31.0295C24.0679 31.0764 24.1066 31.1176 24.1526 31.1505C24.1987 31.1835 24.2512 31.2077 24.3073 31.2216C24.3633 31.2356 24.4218 31.2391 24.4793 31.232C24.5368 31.2248 24.5922 31.2071 24.6424 31.18L26.8176 30.007V32.4422C26.8176 32.6703 27.0159 32.8555 27.2601 32.8555H29.2306C29.3479 32.8555 29.4605 32.812 29.5434 32.7345C29.6264 32.6569 29.673 32.5518 29.673 32.4422V29.6973L32.1332 31.0251C32.1833 31.0523 32.2387 31.07 32.2962 31.0772C32.3537 31.0844 32.4121 31.0809 32.4682 31.067C32.5243 31.0531 32.5768 31.029 32.6229 30.996C32.669 30.9631 32.7076 30.922 32.7367 30.8751L33.7219 29.2877C33.7805 29.1928 33.7965 29.08 33.7665 28.9741C33.7364 28.8681 33.6627 28.7776 33.5615 28.7222L31.3733 27.5388L33.6328 26.3207C33.6831 26.2937 33.7272 26.2576 33.7626 26.2146C33.798 26.1716 33.8239 26.1226 33.839 26.0702C33.854 26.0178 33.8579 25.9632 33.8504 25.9095C33.8429 25.8557 33.8241 25.8039 33.7951 25.7569L32.8217 24.1706C32.763 24.0753 32.6662 24.0057 32.5526 23.9771ZM30.2683 27.18C30.2009 27.2163 30.1449 27.2685 30.106 27.3314C30.0671 27.3943 30.0466 27.4656 30.0466 27.5383C30.0466 27.611 30.0671 27.6823 30.106 27.7452C30.1449 27.8081 30.2009 27.8603 30.2683 27.8966L32.7343 29.2304L32.1933 30.1024L29.4518 28.623C29.3845 28.5867 29.3082 28.5676 29.2305 28.5676C29.1528 28.5677 29.0765 28.5868 29.0092 28.6231C28.9419 28.6594 28.8861 28.7116 28.8473 28.7745C28.8085 28.8374 28.788 28.9087 28.7881 28.9813V32.0293H27.7026V29.2916C27.7026 29.219 27.6822 29.1477 27.6434 29.0848C27.6046 29.0219 27.5487 28.9697 27.4815 28.9334C27.4142 28.8971 27.3379 28.878 27.2602 28.878C27.1825 28.8779 27.1061 28.897 27.0389 28.9333L24.5829 30.2578L24.0413 29.387L26.7805 27.9076C26.8477 27.8713 26.9036 27.8191 26.9424 27.7563C26.9812 27.6934 27.0017 27.6222 27.0017 27.5496C27.0017 27.477 26.9812 27.4058 26.9424 27.3429C26.9036 27.2801 26.8477 27.2279 26.7805 27.1916L23.9581 25.6676L24.4997 24.7967L27.0389 26.1659C27.1061 26.2022 27.1825 26.2213 27.2602 26.2212C27.3379 26.2212 27.4142 26.2021 27.4815 26.1658C27.5487 26.1295 27.6046 26.0773 27.6434 26.0144C27.6822 25.9515 27.7026 25.8802 27.7026 25.8076V23.1476H28.7881V26.1074C28.7881 26.18 28.8086 26.2512 28.8475 26.314C28.8863 26.3768 28.9422 26.429 29.0095 26.4652C29.0767 26.5015 29.153 26.5205 29.2306 26.5205C29.3083 26.5205 29.3846 26.5014 29.4518 26.4651L32.2748 24.9417L32.8081 25.8109L30.2683 27.18Z" fill="#149ADE"/>
</svg>
