<svg xmlns="http://www.w3.org/2000/svg" width="38" height="35" viewBox="0 0 38 35" fill="none">
    <path d="M27.1985 24.6484C26.7255 24.6484 26.4102 24.9401 26.4102 25.3776C26.4102 25.8151 26.7255 26.1068 27.1985 26.1068H27.2774C27.7504 26.1068 28.0658 25.8151 28.0658 25.3776C28.0658 24.9401 27.6716 24.6484 27.1985 24.6484Z" fill="#149ADE"/>
    <path d="M2.28631 35H25.7801C27.0415 35 28.0664 34.0521 28.0664 32.8854V31.5729C28.0664 31.1354 27.7511 30.8438 27.278 30.8438C26.805 30.8438 26.4897 31.1354 26.4897 31.5729V32.8854C26.4897 33.25 26.1743 33.5417 25.7801 33.5417H2.28631C1.89212 33.5417 1.57677 33.25 1.57677 32.8854V9.33333H7.01661C8.75105 9.33333 10.0913 8.02083 10.0913 6.48958V1.45833H25.7801C26.1743 1.45833 26.4897 1.75 26.4897 2.11458V3.64583C26.4897 4.08333 26.805 4.375 27.278 4.375C27.7511 4.375 28.0664 4.08333 28.0664 3.64583V2.11458C28.0664 0.947917 27.0415 0 25.7801 0H8.51453C7.48964 0 6.54358 0.364583 5.83403 1.02083L1.10374 5.32292C0.394192 5.97917 0 6.92708 0 7.875V32.8854C0 34.0521 1.0249 35 2.28631 35ZM1.57677 7.875C1.57677 7.36458 1.81328 6.78125 2.20747 6.41667L6.85893 2.11458C7.33196 1.67708 7.88383 1.45833 8.51453 1.45833V6.48958C8.51453 7.21875 7.80499 7.875 7.01661 7.875H1.57677Z" fill="#149ADE"/>
    <path d="M24.2831 4.22917C24.2831 3.79167 23.9678 3.5 23.4947 3.5H12.2997C11.8267 3.5 11.5113 3.79167 11.5113 4.22917C11.5113 4.66667 11.8267 4.95833 12.2997 4.95833H23.4947C23.9678 4.95833 24.2831 4.59375 24.2831 4.22917ZM19.7893 8.02083C19.7893 7.58333 19.474 7.29167 19.0009 7.29167H12.3785C11.9055 7.29167 11.5901 7.58333 11.5901 8.02083C11.5901 8.45833 11.9055 8.75 12.3785 8.75H19.0009C19.3951 8.75 19.7893 8.38542 19.7893 8.02083ZM17.2665 11.8125C17.2665 11.375 16.9511 11.0833 16.4781 11.0833H4.57354C4.10051 11.0833 3.78516 11.375 3.78516 11.8125C3.78516 12.25 4.10051 12.5417 4.57354 12.5417H16.4781C16.9511 12.5417 17.2665 12.25 17.2665 11.8125ZM3.78516 30.7708C3.78516 31.2083 4.10051 31.5 4.57354 31.5H16.0051C16.4781 31.5 16.7935 31.2083 16.7935 30.7708C16.7935 30.3333 16.4781 30.0417 16.0051 30.0417H4.57354C4.10051 30.0417 3.78516 30.4062 3.78516 30.7708ZM28.6981 6.41667V6.34375C28.6981 5.90625 28.3827 5.61458 27.9097 5.61458C27.4366 5.61458 27.1213 5.90625 27.1213 6.34375V6.48958C21.9968 6.85417 17.976 10.7917 17.976 15.6042C17.976 16.0417 18.2914 16.3333 18.7644 16.3333C19.2375 16.3333 19.5528 16.0417 19.5528 15.6042C19.5528 14.875 20.2624 14.2187 21.0507 14.2187C21.8391 14.2187 22.5487 14.875 22.5487 15.6042C22.5487 16.0417 22.864 16.3333 23.3371 16.3333C23.8101 16.3333 24.1254 16.0417 24.1254 15.6042C24.1254 14.875 24.835 14.2187 25.6234 14.2187C26.4117 14.2187 27.1213 14.875 27.1213 15.6042V18.1562H25.7022C24.9138 18.1562 24.2043 18.5208 23.8101 19.1771L21.6026 22.75C21.5238 22.8958 21.4449 22.9688 21.2873 22.9688L17.8184 23.9167C16.8723 24.1354 16.3204 24.9375 16.3204 25.8125V27.4167C16.3204 28.5104 17.2665 29.3854 18.4491 29.3854H19.5528C19.8682 30.5521 21.0507 31.4271 22.4698 31.4271C23.8101 31.4271 24.9927 30.5521 25.3869 29.3854H28.7769C29.0922 30.5521 30.2748 31.4271 31.6939 31.4271C33.0342 31.4271 34.2167 30.5521 34.6109 29.3854H35.7147C36.8972 29.3854 37.8433 28.5104 37.8433 27.4167V25.2292C37.8433 24.2812 37.1338 23.4792 36.1877 23.2604L34.6109 22.9688C34.3744 22.8958 34.2167 22.75 34.2167 22.6042L33.3495 19.6146C33.113 18.7396 32.2458 18.1562 31.2997 18.1562H28.8557V15.5312C28.8557 14.8021 29.5653 14.1458 30.3537 14.1458C31.142 14.1458 31.8516 14.8021 31.8516 15.5312C31.8516 15.9687 32.1669 16.2604 32.64 16.2604C33.113 16.2604 33.4284 15.9687 33.4284 15.5312C33.4284 14.8021 34.1379 14.1458 34.9263 14.1458C35.7147 14.1458 36.4242 14.8021 36.4242 15.5312C36.4242 15.9687 36.7396 16.2604 37.2126 16.2604C37.6856 16.2604 38.001 15.9687 38.001 15.5312C37.8433 10.7917 33.8225 6.78125 28.6981 6.41667ZM25.2292 19.9062C25.308 19.7604 25.5445 19.6146 25.7022 19.6146H27.1213V22.3854H23.6524L25.2292 19.9062ZM22.5487 30.0417C21.7603 30.0417 21.1296 29.4583 21.1296 28.7292C21.1296 28.0729 21.7603 27.4167 22.5487 27.4167C23.3371 27.4167 23.9678 28 23.9678 28.7292C23.8889 29.4583 23.2582 30.0417 22.5487 30.0417ZM31.6939 30.0417C30.9055 30.0417 30.2748 29.4583 30.2748 28.7292V28.6562C30.2748 27.9271 30.9844 27.4167 31.6939 27.4167C32.4823 27.4167 33.113 28 33.113 28.7292C33.113 29.4583 32.4823 30.0417 31.6939 30.0417ZM35.7935 24.7917C36.03 24.8646 36.2665 25.0833 36.2665 25.3021V27.4896C36.2665 27.7812 36.03 28 35.7147 28H34.6109C34.2956 26.8333 33.0342 25.9583 31.6939 25.9583C30.3537 25.9583 29.1711 26.8333 28.7769 28H25.3869C25.0715 26.8333 23.8101 25.9583 22.4698 25.9583C21.1296 25.9583 19.947 26.8333 19.5528 28H18.4491C18.1337 28 17.8972 27.7812 17.8972 27.4896V25.8854C17.8972 25.6667 18.0549 25.4479 18.2914 25.375L21.7603 24.4271C22.1545 24.3542 22.4698 24.1354 22.7063 23.8438H33.113C33.4284 24.1354 33.7437 24.3542 34.2167 24.4271L35.7935 24.7917ZM31.2209 19.6146C31.4574 19.6146 31.6939 19.7604 31.7728 19.9792L32.4823 22.3854H28.7769V19.6146H31.2209ZM34.7686 12.7604C33.8225 12.7604 33.0342 13.125 32.4823 13.7083C31.2209 12.4687 29.1711 12.4687 27.9097 13.7083C26.6483 12.4687 24.5985 12.4687 23.3371 13.7083C22.4698 12.8333 21.2084 12.5417 20.1047 12.9062C21.2873 9.98958 24.362 7.875 27.9097 7.875C31.4574 7.875 34.5321 9.98958 35.7147 12.9062C35.3993 12.7604 35.084 12.7604 34.7686 12.7604Z" fill="#149ADE"/>
    <path d="M10.3287 14.875C6.70217 14.875 3.78516 17.5729 3.78516 20.9271C3.78516 24.2813 6.70217 26.9792 10.3287 26.9792C13.9553 26.9792 16.8723 24.2813 16.8723 20.9271C16.9511 17.5729 13.9553 14.875 10.3287 14.875ZM10.3287 25.5208C7.56939 25.5208 5.36192 23.4792 5.36192 20.9271C5.36192 18.375 7.56939 16.3333 10.3287 16.3333C13.0881 16.3333 15.2955 18.375 15.2955 20.9271C15.3744 23.4792 13.0881 25.5208 10.3287 25.5208Z" fill="#149ADE"/>
    <path d="M12.2971 18.8126L9.4589 21.5105L8.434 20.5626C8.11865 20.271 7.64562 20.271 7.33026 20.5626C7.01491 20.8543 7.01491 21.2918 7.33026 21.5835L8.90703 23.0418C9.06471 23.1876 9.30122 23.2605 9.4589 23.2605C9.61658 23.2605 9.85309 23.1876 10.0108 23.0418L13.4008 19.9064C13.7162 19.6147 13.7162 19.1772 13.4008 18.8855C13.0855 18.5939 12.6124 18.521 12.2971 18.8126Z" fill="#149ADE"/>
</svg>
