<svg xmlns="http://www.w3.org/2000/svg" width="43" height="48" viewBox="0 0 43 48" fill="none">
    <path d="M16.5346 30.1478H13.2243C12.997 30.1478 12.779 30.0575 12.6182 29.8967C12.4575 29.736 12.3672 29.518 12.3672 29.2907V25.9821C12.3672 25.7548 12.4575 25.5368 12.6182 25.376C12.779 25.2153 12.997 25.125 13.2243 25.125H16.5337C16.761 25.125 16.979 25.2153 17.1398 25.376C17.3005 25.5368 17.3908 25.7548 17.3908 25.9821V29.2907C17.3908 29.518 17.3005 29.736 17.1398 29.8967C16.979 30.0575 16.7619 30.1478 16.5346 30.1478ZM14.0815 28.4335H15.6766V26.8393H14.0823L14.0815 28.4335ZM23.1533 30.1478H19.8431C19.6158 30.1478 19.3977 30.0575 19.237 29.8967C19.0763 29.736 18.986 29.518 18.986 29.2907V25.9821C18.986 25.7548 19.0763 25.5368 19.237 25.376C19.3977 25.2153 19.6158 25.125 19.8431 25.125H23.1533C23.3807 25.125 23.5987 25.2153 23.7594 25.376C23.9202 25.5368 24.0105 25.7548 24.0105 25.9821V29.2907C24.0105 29.518 23.9202 29.736 23.7594 29.8967C23.5987 30.0575 23.3807 30.1478 23.1533 30.1478ZM20.7002 28.4335H22.2962V26.8393H20.7002V28.4335ZM29.7721 30.1478H26.4627C26.2354 30.1478 26.0174 30.0575 25.8566 29.8967C25.6959 29.736 25.6056 29.518 25.6056 29.2907V25.9821C25.6056 25.7548 25.6959 25.5368 25.8566 25.376C26.0174 25.2153 26.2354 25.125 26.4627 25.125H29.7712C29.9986 25.125 30.2166 25.2153 30.3773 25.376C30.5381 25.5368 30.6284 25.7548 30.6284 25.9821V29.2907C30.6284 29.518 30.5381 29.736 30.3773 29.8967C30.2166 30.0575 29.9994 30.1478 29.7721 30.1478ZM27.3198 28.4335H28.9141V26.8393H27.3198V28.4335ZM16.5337 36.7674H13.2252C12.9979 36.7674 12.7798 36.6771 12.6191 36.5164C12.4583 36.3556 12.368 36.1376 12.368 35.9103V32.6C12.368 32.3727 12.4583 32.1547 12.6191 31.994C12.7798 31.8332 12.9979 31.7429 13.2252 31.7429H16.5337C16.761 31.7429 16.979 31.8332 17.1398 31.994C17.3005 32.1547 17.3908 32.3727 17.3908 32.6V35.9103C17.3908 36.1376 17.3005 36.3556 17.1398 36.5164C16.979 36.6771 16.761 36.7674 16.5337 36.7674ZM14.0823 35.0532H15.6766V33.4572H14.0823V35.0532ZM23.1533 36.7674H19.8431C19.6158 36.7674 19.3977 36.6771 19.237 36.5164C19.0763 36.3556 18.986 36.1376 18.986 35.9103V32.6C18.986 32.3727 19.0763 32.1547 19.237 31.994C19.3977 31.8332 19.6158 31.7429 19.8431 31.7429H23.1533C23.3807 31.7429 23.5987 31.8332 23.7594 31.994C23.9202 32.1547 24.0105 32.3727 24.0105 32.6V35.9103C24.0105 36.1376 23.9202 36.3556 23.7594 36.5164C23.5987 36.6771 23.3807 36.7674 23.1533 36.7674ZM20.7002 35.0532H22.2962V33.4572H20.7002V35.0532ZM29.7721 36.7674H26.4627C26.2354 36.7674 26.0174 36.6771 25.8566 36.5164C25.6959 36.3556 25.6056 36.1376 25.6056 35.9103V32.6C25.6056 32.3727 25.6959 32.1547 25.8566 31.994C26.0174 31.8332 26.2354 31.7429 26.4627 31.7429H29.7712C29.9986 31.7429 30.2166 31.8332 30.3773 31.994C30.5381 32.1547 30.6284 32.3727 30.6284 32.6V35.9103C30.6284 36.1376 30.5381 36.3556 30.3773 36.5164C30.2166 36.6771 29.9994 36.7674 29.7721 36.7674ZM27.3198 35.0532H28.9141V33.4572H27.3198V35.0532Z" fill="#149ADE"/>
    <path d="M40.4635 18.5044H33.9399V16.899C34.3856 16.8749 34.8052 16.6813 35.1128 16.3578C35.4204 16.0343 35.5926 15.6054 35.5941 15.159V13.6359C35.5937 13.1718 35.4091 12.7269 35.081 12.3988C34.7528 12.0706 34.3079 11.8861 33.8439 11.8856H31.1422C31.7641 9.62692 32.0119 7.28164 31.8759 4.94285C31.8615 4.68846 31.7607 4.44661 31.5902 4.25726C31.4197 4.06791 31.1897 3.94239 30.9382 3.90143L30.6082 3.84658C29.2369 3.66514 27.8927 3.31744 26.6054 2.81116C25.0251 2.11539 23.529 1.24238 22.1457 0.208911C21.9576 0.0729566 21.7314 -0.000153665 21.4993 2.42499e-07C21.2672 0.00015415 21.0411 0.0735643 20.8532 0.209768C19.4698 1.24277 17.9737 2.11548 16.3935 2.81116C15.1062 3.31744 13.7621 3.66514 12.3907 3.84658L12.0599 3.90143C11.8085 3.94241 11.5786 4.06797 11.4082 4.25733C11.2379 4.4467 11.1373 4.68853 11.123 4.94285C10.9867 7.28159 11.2343 9.62687 11.8559 11.8856H9.15505C8.69099 11.8861 8.24606 12.0706 7.91793 12.3988C7.58979 12.7269 7.40524 13.1718 7.40478 13.6359V15.159C7.40632 15.6054 7.57852 16.0343 7.88609 16.3578C8.19366 16.6813 8.61332 16.8749 9.05905 16.899V18.5044H2.53628C2.07207 18.5046 1.62693 18.6891 1.2986 19.0172C0.970276 19.3454 0.78561 19.7904 0.785156 20.2546V21.7778C0.786695 22.2242 0.958895 22.653 1.26647 22.9765C1.57404 23.3001 1.99369 23.4937 2.43942 23.5177V47.1429C2.43942 47.3702 2.52972 47.5882 2.69047 47.749C2.85121 47.9097 3.06923 48 3.29655 48H39.7015C39.9288 48 40.1468 47.9097 40.3076 47.749C40.4683 47.5882 40.5586 47.3702 40.5586 47.1429V23.5177C41.0044 23.4937 41.424 23.3001 41.7316 22.9765C42.0392 22.653 42.2114 22.2242 42.2129 21.7778V20.2546C42.2124 19.7907 42.028 19.3459 41.7001 19.0178C41.3721 18.6897 40.9274 18.5051 40.4635 18.5044ZM40.4995 20.2546V21.7778C40.4995 21.7825 40.4986 21.7872 40.4968 21.7915C40.4949 21.7959 40.4923 21.7999 40.4889 21.8032C40.4856 21.8066 40.4816 21.8092 40.4773 21.811C40.4729 21.8128 40.4682 21.8138 40.4635 21.8138H33.9399V20.2229L40.4995 20.2546ZM33.8799 13.6359L33.8439 15.195H29.9182C29.9585 15.1076 30.0022 15.0253 30.0425 14.937C30.2456 14.4887 30.4231 14.0456 30.5868 13.605L33.8799 13.6359ZM12.8116 5.51541C14.264 5.31534 15.6867 4.93944 17.0484 4.396C18.6208 3.71375 20.1135 2.86063 21.4995 1.85203C22.8854 2.86069 24.378 3.71381 25.9505 4.396C27.3122 4.93944 28.7349 5.31534 30.1873 5.51541C30.2976 8.51229 29.7139 11.4941 28.4817 14.2282C26.9641 17.5322 24.5437 20.34 21.4995 22.3281C18.7163 20.5211 16.4516 18.0206 14.9283 15.0726C13.4049 12.1247 12.6754 8.8309 12.8116 5.51541ZM27.3202 20.2186H28.9162V21.8129H27.3211L27.3202 20.2186ZM9.15505 13.5999H12.4096C12.5741 14.0413 12.7524 14.487 12.9564 14.937C12.995 15.0219 13.037 15.1016 13.0764 15.1856L9.11905 15.159L9.15505 13.5999ZM2.53542 20.2186H9.05905V21.8095L2.50028 21.7778L2.53542 20.2186ZM9.05905 46.2857H4.15454V23.528H9.05905V46.2857ZM10.7733 22.6709V16.9093H13.9901C14.3261 17.475 14.6784 18.0064 15.041 18.5035H13.2256C12.9982 18.5035 12.7802 18.5938 12.6195 18.7546C12.4587 18.9153 12.3684 19.1333 12.3684 19.3607V22.6709C12.3684 22.8982 12.4587 23.1162 12.6195 23.277C12.7802 23.4377 12.9982 23.528 13.2256 23.528H16.535C16.7623 23.528 16.9803 23.4377 17.141 23.277C17.3018 23.1162 17.3921 22.8982 17.3921 22.6709V21.2172C18.4641 22.2628 19.6444 23.1912 20.9132 23.9866C21.0894 24.0963 21.2928 24.1544 21.5003 24.1544C21.7079 24.1544 21.9113 24.0963 22.0875 23.9866C23.3556 23.1911 24.5354 22.2627 25.6068 21.2172V22.6709C25.6068 22.8982 25.6971 23.1162 25.8579 23.277C26.0186 23.4377 26.2366 23.528 26.464 23.528H29.7725C29.9998 23.528 30.2178 23.4377 30.3786 23.277C30.5393 23.1162 30.6296 22.8982 30.6296 22.6709V19.3615C30.6296 19.1342 30.5393 18.9162 30.3786 18.7554C30.2178 18.5947 29.9998 18.5044 29.7725 18.5044H27.9579C28.3205 18.0064 28.6728 17.475 29.0088 16.9093H32.2256V46.2857H26.4931V38.9298C26.4931 38.7025 26.4028 38.4845 26.2421 38.3237C26.0813 38.163 25.8633 38.0727 25.636 38.0727H17.3629C17.1356 38.0727 16.9176 38.163 16.7569 38.3237C16.5961 38.4845 16.5058 38.7025 16.5058 38.9298V46.2857H10.7733V22.6709ZM15.6778 20.2186V21.8129H14.0836V20.2186H15.6778ZM24.7788 39.787V46.2429H22.3566V39.7861L24.7788 39.787ZM20.6423 46.2429H18.2201V39.7861H20.6423V46.2429ZM38.8444 46.2857H33.9399V23.528H38.8444V46.2857Z" fill="#149ADE"/>
    <path d="M19.9677 15.0304C19.811 15.0299 19.6563 14.9954 19.5142 14.9292C19.3722 14.8631 19.2461 14.7669 19.1449 14.6473L17.2643 12.4479C17.1912 12.3623 17.1356 12.2632 17.1007 12.1562C17.0659 12.0491 17.0524 11.9363 17.0612 11.824C17.0699 11.7118 17.1007 11.6024 17.1518 11.5021C17.2028 11.4018 17.2731 11.3125 17.3586 11.2393C17.4442 11.1661 17.5433 11.1105 17.6503 11.0757C17.7574 11.0408 17.8702 11.0274 17.9824 11.0361C18.0947 11.0449 18.2041 11.0757 18.3044 11.1267C18.4047 11.1777 18.494 11.248 18.5672 11.3336L19.966 12.969L24.4274 7.71649C24.5003 7.63066 24.5894 7.56003 24.6895 7.50862C24.7897 7.45722 24.899 7.42605 25.0113 7.4169C25.1235 7.40775 25.2364 7.42079 25.3436 7.45528C25.4508 7.48977 25.5501 7.54503 25.636 7.61792C25.7218 7.6908 25.7924 7.77987 25.8438 7.88005C25.8952 7.98023 25.9264 8.08955 25.9355 8.20178C25.9447 8.314 25.9316 8.42693 25.8972 8.53412C25.8627 8.6413 25.8074 8.74064 25.7345 8.82647L20.7923 14.6438C20.6938 14.7672 20.5681 14.8661 20.4251 14.933C20.2821 14.9999 20.1256 15.0338 19.9677 15.0304Z" fill="#149ADE"/>
</svg>
