<svg xmlns="http://www.w3.org/2000/svg" width="29" height="32" viewBox="0 0 29 32" fill="none">
    <path d="M15.2 24C15.6418 24 16 23.6418 16 23.2C16 22.7582 15.6418 22.4 15.2 22.4H7.2C6.7582 22.4 6.4 22.7582 6.4 23.2C6.4 23.6418 6.7582 24 7.2 24H15.2ZM18.4 16H7.2C6.7582 16 6.4 16.3582 6.4 16.8C6.4 17.2418 6.7582 17.6 7.2 17.6H18.4C18.8418 17.6 19.2 17.2418 19.2 16.8C19.2 16.3582 18.8418 16 18.4 16ZM7.2 9.6C6.7582 9.6 6.4 9.9582 6.4 10.4C6.4 10.8418 6.7582 11.2 7.2 11.2H10.4C10.8418 11.2 11.2 10.8418 11.2 10.4C11.2 9.9582 10.8418 9.6 10.4 9.6H7.2ZM18.4 30.4H4.8C3.03359 30.3978 1.60225 28.9664 1.6 27.2V4.8C1.60225 3.03359 3.03359 1.60225 4.8 1.6H14.4V7.46719C14.4026 9.52764 16.0724 11.1974 18.1328 11.2H24V18.4C24 18.8418 24.3582 19.2 24.8 19.2C25.2418 19.2 25.6 18.8418 25.6 18.4V10.4C25.6 10.1878 25.5157 9.98438 25.3656 9.83438L15.7656 0.234375C15.6156 0.0842772 15.4122 0 15.2 0H4.8C2.1502 0.00292976 0.00292976 2.1502 0 4.8V27.2C0.00292976 29.8498 2.1502 31.9971 4.8 32H18.4C18.8418 32 19.2 31.6418 19.2 31.2C19.2 30.7582 18.8418 30.4 18.4 30.4ZM16 2.73115L22.8688 9.6H18.1328C16.9553 9.59902 16.001 8.64473 16 7.46719V2.73115ZM28.5655 27.454C28.2586 27.1362 27.7521 27.1274 27.4344 27.4344L25.6 29.2688V23.2C25.6 22.7582 25.2418 22.4 24.8 22.4C24.3582 22.4 24 22.7582 24 23.2V29.2688L22.1655 27.4345C21.8556 27.135 21.364 27.135 21.054 27.4345C20.7361 27.7414 20.7274 28.2479 21.0344 28.5656L24.2344 31.7656C24.3842 31.9159 24.5878 32.0003 24.8 32C25.0122 32.0002 25.2157 31.9159 25.3655 31.7656L28.5655 28.5656C28.865 28.2556 28.865 27.7641 28.5655 27.454Z" fill="#149ADE"/>
</svg>
