<svg xmlns="http://www.w3.org/2000/svg" width="38" height="37" viewBox="0 0 38 37" fill="none">
    <path d="M4.91846 6.25227C6.34906 6.25227 7.50879 5.09268 7.50879 3.66227C7.50879 2.23185 6.34906 1.07227 4.91846 1.07227C3.48786 1.07227 2.32812 2.23185 2.32812 3.66227C2.32812 5.09268 3.48786 6.25227 4.91846 6.25227Z" fill="#BADEFF" fill-opacity="0.3"/>
    <path d="M4.91915 4.62517C5.45052 4.62517 5.88128 4.19447 5.88128 3.66317C5.88128 3.13187 5.45052 2.70117 4.91915 2.70117C4.38779 2.70117 3.95703 3.13187 3.95703 3.66317C3.95703 4.19447 4.38779 4.62517 4.91915 4.62517Z" fill="white"/>
    <path d="M29.0092 4.07023C28.5281 4.07023 28.1211 3.66323 28.1211 3.18223V1.62823C28.1211 1.14723 28.5281 0.740234 29.0092 0.740234C29.4903 0.740234 29.8973 1.14723 29.8973 1.62823V3.18223C29.8973 3.66323 29.5273 4.07023 29.0092 4.07023ZM34.4859 4.07023C34.0048 4.07023 33.5978 3.66323 33.5978 3.18223V1.62823C33.5978 1.14723 34.0048 0.740234 34.4859 0.740234C34.967 0.740234 35.374 1.14723 35.374 1.62823V3.18223C35.374 3.66323 34.967 4.07023 34.4859 4.07023Z" fill="#BADEFF" fill-opacity="0.3"/>
    <path d="M32.3382 8.3997V34.7437C32.3382 35.5947 31.6351 36.2977 30.784 36.2977H9.13623C8.28512 36.2977 7.58203 35.5947 7.58203 34.7437V8.3997C7.58203 7.5487 8.28512 6.8457 9.13623 6.8457H30.821C31.6721 6.8457 32.3382 7.5487 32.3382 8.3997Z" fill="white"/>
    <path d="M14.2059 25.1973V30.1183C14.2059 31.0063 14.0579 31.8203 13.7248 32.5233C13.0587 34.1143 11.7266 35.3353 9.76531 36.2233H9.13623C8.28512 36.2233 7.58203 35.5203 7.58203 34.6693V24.0503C7.87807 23.8653 8.17411 23.6063 8.47015 23.3473C8.61816 23.1993 8.84019 23.1993 8.98821 23.3473C10.3574 24.6423 11.9116 25.1233 13.7618 24.8273C13.8728 24.7903 13.9839 24.8273 14.0579 24.9013C14.1319 25.0123 14.2059 25.1233 14.2059 25.1973Z" fill="#E9F1FE"/>
    <path d="M17.7583 15.539C17.7953 15.65 17.7583 15.798 17.7213 15.909L17.3512 16.575C17.2772 16.686 17.1662 16.76 17.0552 16.797C16.9442 16.834 16.7961 16.797 16.6851 16.76L14.9829 15.761V17.759C14.9829 18.018 14.7609 18.24 14.4648 18.24H13.6877C13.4287 18.24 13.1697 18.018 13.1697 17.759V15.761L11.4675 16.76C11.3564 16.834 11.2084 16.871 11.0974 16.797C10.9864 16.76 10.8754 16.686 10.8014 16.575L10.4313 15.909C10.3573 15.798 10.3203 15.65 10.3943 15.539C10.4313 15.391 10.5053 15.317 10.6163 15.243L12.3186 14.244L10.6163 13.245C10.3943 13.097 10.2833 12.801 10.4313 12.579L10.8384 11.913C10.9124 11.802 11.0234 11.728 11.1344 11.691C11.2824 11.654 11.3934 11.654 11.5045 11.728L13.2067 12.727V10.729C13.2067 10.47 13.4287 10.248 13.7247 10.248H14.5018C14.7609 10.248 15.0199 10.47 15.0199 10.729V12.727L16.7221 11.728C16.8331 11.691 16.9812 11.654 17.0922 11.691C17.2032 11.728 17.3142 11.802 17.3882 11.913L17.7953 12.579C17.9433 12.838 17.8323 13.134 17.6102 13.245L15.908 14.244L17.6102 15.243C17.6843 15.317 17.7583 15.391 17.7583 15.539ZM12.2446 25.196V30.117C12.2446 30.894 12.0965 31.671 11.8005 32.411C11.0234 34.261 9.32118 35.445 7.32293 36.185C7.1009 36.2591 6.87887 36.2591 6.69385 36.185C4.7326 35.445 3.25241 34.261 2.47531 32.411C2.17927 31.708 2.03125 30.931 2.03125 30.154V25.196C3.9925 25.492 5.69472 24.974 7.1379 23.605C8.58109 24.974 10.2833 25.529 12.2446 25.196Z" fill="#BADEFF" fill-opacity="0.3"/>
    <path d="M7.02717 34.7422C5.43596 34.1132 4.36283 33.1512 3.84476 31.8562C3.62273 31.3382 3.51172 30.7832 3.51172 30.1542V26.7502C4.84389 26.6762 6.02804 26.2692 7.13818 25.4922C8.21132 26.2322 9.43248 26.6392 10.7646 26.7502V30.1542C10.7646 30.7832 10.6536 31.3382 10.4316 31.8562C9.95054 33.0772 8.8034 34.0392 7.02717 34.7422Z" fill="white"/>
    <path d="M6.25181 3.66208C6.25181 2.92208 5.65974 2.33008 4.91964 2.33008C4.17955 2.33008 3.58747 2.92208 3.58747 3.66208C3.58747 4.40208 4.17955 4.99408 4.91964 4.99408C5.65974 4.99408 6.25181 4.40208 6.25181 3.66208ZM4.32757 3.66208C4.32757 3.32908 4.5866 3.07008 4.91964 3.07008C5.25268 3.07008 5.51172 3.32908 5.51172 3.66208C5.51172 3.99508 5.25268 4.25408 4.91964 4.25408C4.5866 4.25408 4.32757 3.99508 4.32757 3.66208ZM2.32931 35.8891H1.73723C1.51521 35.8891 1.36719 36.0371 1.36719 36.2591C1.36719 36.4811 1.51521 36.6291 1.73723 36.6291H2.32931C2.55134 36.6291 2.69936 36.4811 2.69936 36.2591C2.69936 36.0371 2.55134 35.8891 2.32931 35.8891ZM37.2618 35.8891H36.2997C36.0776 35.8891 35.9296 36.0371 35.9296 36.2591C35.9296 36.4811 36.0776 36.6291 36.2997 36.6291H37.2618C37.4838 36.6291 37.6318 36.4811 37.6318 36.2591C37.6318 36.0371 37.4468 35.8891 37.2618 35.8891Z" fill="#149ADE"/>
    <path d="M32.748 13.8371C35.2644 13.3561 37.1886 11.1361 37.1886 8.50914V3.40314C37.1886 2.62614 36.5595 1.96014 35.7824 1.92314V1.62714C35.7824 0.924141 35.2274 0.369141 34.5243 0.369141C33.8212 0.369141 33.2661 0.924141 33.2661 1.62714V3.18114C33.2661 3.88414 33.8212 4.43914 34.5243 4.43914C35.2274 4.43914 35.7824 3.88414 35.7824 3.18114V2.70014C36.1525 2.73714 36.4485 3.03314 36.4485 3.44014V8.50914C36.4485 10.7661 34.8573 12.6161 32.748 13.0971V8.39814C32.748 7.32514 31.8969 6.47414 30.8238 6.47414H27.0123V3.36614C27.0123 2.95914 27.3454 2.62614 27.7524 2.62614V3.21814C27.7524 3.92114 28.3075 4.47614 29.0106 4.47614C29.7137 4.47614 30.2687 3.92114 30.2687 3.21814V1.62714C30.2687 0.924141 29.7137 0.369141 29.0106 0.369141C28.3075 0.369141 27.7524 0.924141 27.7524 1.62714V1.84914C26.9383 1.84914 26.2722 2.51514 26.2722 3.32914V6.43714H9.13902C8.06588 6.43714 7.21477 7.28814 7.21477 8.36114V11.2101C6.14164 11.1731 5.29053 10.2851 5.29053 9.21214V6.54814C6.73371 6.36314 7.88086 5.10514 7.88086 3.62514C7.88086 1.99714 6.54869 0.665141 4.92048 0.665141C3.29227 0.665141 1.9601 1.99714 1.9601 3.62514C1.9601 5.14214 3.10725 6.40014 4.55043 6.54814V9.24914C4.55043 10.7291 5.73458 11.9501 7.21477 11.9871V18.2401C7.21477 18.4621 7.36279 18.6101 7.58482 18.6101C7.80685 18.6101 7.95487 18.4621 7.95487 18.2401V8.39814C7.95487 7.76914 8.47294 7.21414 9.13902 7.21414H30.8238C31.4529 7.21414 32.008 7.73214 32.008 8.39814V34.7421C32.008 35.3711 31.4899 35.9261 30.8238 35.9261H9.13902C9.10202 35.9261 9.02801 35.9261 8.991 35.9261C10.2862 35.2231 11.2483 34.3351 11.8404 33.2991H29.6396C29.8617 33.2991 30.0097 33.1511 30.0097 32.9291C30.0097 32.7071 29.8617 32.5591 29.6396 32.5591H12.1734C12.4694 31.8561 12.6175 31.0421 12.6175 30.2281V29.8951H29.6026C29.8247 29.8951 29.9727 29.7471 29.9727 29.5251C29.9727 29.3031 29.8247 29.1551 29.6026 29.1551H12.6175V25.8991H29.6026C29.8247 25.8991 29.9727 25.7511 29.9727 25.5291C29.9727 25.3071 29.8247 25.1591 29.6026 25.1591H12.5805C12.5435 25.1221 12.5435 25.0481 12.4694 25.0111C12.3954 24.9371 12.2844 24.9001 12.1734 24.9371C10.5452 25.1961 9.13902 24.8631 7.91786 23.9011V20.8671C7.91786 20.6451 7.76985 20.4971 7.54782 20.4971C7.32579 20.4971 7.17777 20.6451 7.17777 20.8671V23.3461C7.06675 23.3091 6.95574 23.3461 6.84473 23.4201C5.47555 24.7151 3.92135 25.1961 2.07111 24.9001C1.9601 24.9001 1.84909 24.9001 1.77508 24.9741C1.70107 25.0481 1.66406 25.1591 1.66406 25.2701V30.1911C1.66406 32.5591 2.88522 34.6311 5.14251 35.9261H3.88435C3.66232 35.9261 3.5143 36.0741 3.5143 36.2961C3.5143 36.5181 3.66232 36.6661 3.88435 36.6661C6.43767 36.6661 27.7154 36.6661 30.8238 36.6661H34.8573C35.0793 36.6661 35.2274 36.5181 35.2274 36.2961C35.2274 36.0741 35.0793 35.9261 34.8573 35.9261H32.341C32.6 35.5931 32.748 35.1861 32.748 34.7421V13.8371ZM35.0053 3.18114C35.0053 3.47714 34.7833 3.69914 34.4873 3.69914C34.1912 3.69914 33.9692 3.47714 33.9692 3.18114V1.62714C33.9692 1.33114 34.1912 1.10914 34.4873 1.10914C34.7833 1.10914 35.0053 1.33114 35.0053 1.62714V3.18114ZM28.4925 1.62714C28.4925 1.33114 28.7515 1.10914 29.0106 1.10914C29.2696 1.10914 29.5286 1.33114 29.5286 1.62714V3.18114C29.5286 3.47714 29.3066 3.69914 29.0106 3.69914C28.7145 3.69914 28.4925 3.47714 28.4925 3.18114V1.62714ZM2.7002 3.66214C2.7002 2.44114 3.69932 1.44214 4.92048 1.44214C6.14164 1.44214 7.14076 2.44114 7.14076 3.66214C7.14076 4.88314 6.14164 5.88214 4.92048 5.88214C3.69932 5.88214 2.7002 4.88314 2.7002 3.66214ZM2.40416 30.1541V25.6401C4.18039 25.8251 5.77159 25.3071 7.14076 24.1231C8.50994 25.3071 10.0641 25.8251 11.8774 25.6401V30.1541C11.8774 33.0771 9.95312 34.8531 7.21477 35.8521C7.10376 35.8891 6.95574 35.8891 6.84473 35.8521C4.18039 34.8531 2.40416 32.9291 2.40416 30.1541Z" fill="#149ADE"/>
    <path d="M19.6468 10.9519H29.6381C29.8601 10.9519 30.0081 10.8039 30.0081 10.5819C30.0081 10.3599 29.8601 10.2119 29.6381 10.2119H19.6468C19.4248 10.2119 19.2767 10.3599 19.2767 10.5819C19.2767 10.8039 19.4248 10.9519 19.6468 10.9519ZM19.6468 14.6149H29.6381C29.8601 14.6149 30.0081 14.4669 30.0081 14.2449C30.0081 14.0229 29.8601 13.8749 29.6381 13.8749H19.6468C19.4248 13.8749 19.2767 14.0229 19.2767 14.2449C19.2767 14.4669 19.4248 14.6149 19.6468 14.6149ZM19.6468 18.3149H29.6381C29.8601 18.3149 30.0081 18.1669 30.0081 17.9449C30.0081 17.7229 29.8601 17.5749 29.6381 17.5749H19.6468C19.4248 17.5749 19.2767 17.7229 19.2767 17.9449C19.2767 18.1669 19.4248 18.3149 19.6468 18.3149ZM10.0256 21.4599C10.0256 21.6819 10.1736 21.8299 10.3956 21.8299H29.6381C29.8601 21.8299 30.0081 21.6819 30.0081 21.4599C30.0081 21.2379 29.8601 21.0899 29.6381 21.0899H10.3956C10.1736 21.0899 10.0256 21.2379 10.0256 21.4599ZM9.98856 15.4289C9.91455 15.6509 9.95155 15.8729 10.0626 16.0949L10.4326 16.7979C10.5436 16.9829 10.7287 17.1309 10.9137 17.1679C11.1357 17.2419 11.3947 17.2049 11.5798 17.0939L12.7269 16.4279V17.7599C12.7269 18.2409 13.134 18.6109 13.615 18.6109H14.3921C14.8732 18.6109 15.2802 18.2409 15.2802 17.7599V16.4279L16.4644 17.0939C16.6864 17.2049 16.9454 17.2419 17.1305 17.1679C17.3525 17.0939 17.5005 16.9459 17.6485 16.7609L18.0186 16.0949C18.1296 15.8729 18.1666 15.6509 18.0926 15.4289C18.0556 15.2809 17.9446 15.0589 17.6855 14.9109L16.5384 14.2449L17.6855 13.5789C18.0926 13.3569 18.2406 12.8019 18.0186 12.3949L17.6485 11.7289C17.5375 11.5069 17.3525 11.3589 17.1305 11.3219C16.9084 11.2479 16.6864 11.2849 16.4644 11.3959L15.3172 12.0619V10.7299C15.3172 10.2489 14.9102 9.87891 14.4291 9.87891H13.652C13.171 9.87891 12.7639 10.2489 12.7639 10.7299V12.0619L11.6168 11.3959C11.4317 11.2479 11.1727 11.2109 10.9507 11.2849C10.7287 11.3219 10.5436 11.4699 10.3956 11.6919L9.98856 12.3579C9.76653 12.7649 9.91455 13.2829 10.3216 13.5419L11.4687 14.2079L10.3216 14.8739C10.1366 15.0589 10.0256 15.2809 9.98856 15.4289ZM10.6916 15.6139C10.6916 15.6139 10.6916 15.5769 10.7287 15.5769L12.4309 14.5779C12.5419 14.5039 12.6159 14.3929 12.6159 14.2449C12.6159 14.0969 12.5419 13.9859 12.4309 13.9119L10.7657 12.9499C10.7287 12.9129 10.6916 12.8389 10.6916 12.7649L11.0987 12.0989C11.0987 12.0619 11.1357 12.0619 11.1727 12.0619C11.2097 12.0619 11.2097 12.0619 11.2097 12.0619C11.2097 12.0619 11.2467 12.0619 11.2467 12.0989L12.9489 13.0979C13.06 13.1719 13.208 13.1719 13.319 13.0979C13.43 13.0239 13.504 12.9129 13.504 12.7649V10.7299C13.504 10.6559 13.578 10.6189 13.652 10.6189H14.4291C14.5031 10.6189 14.5771 10.6559 14.5771 10.7299V12.7279C14.5771 12.8759 14.6512 12.9869 14.7622 13.0609C14.8732 13.1349 15.0212 13.1349 15.1322 13.0609L16.8344 12.0619C16.8714 12.0619 16.9084 12.0249 16.9825 12.0619C17.0195 12.0619 17.0195 12.0989 17.0565 12.0989L17.4265 12.7649C17.4635 12.8389 17.4265 12.9129 17.3895 12.9499L15.6873 13.9489C15.5763 14.0229 15.5023 14.1339 15.5023 14.2819C15.5023 14.4299 15.5763 14.5409 15.6873 14.6149L17.3895 15.6139C17.4265 15.6509 17.4265 15.6509 17.4265 15.6509V15.6879C17.4265 15.6879 17.4265 15.7249 17.3895 15.7619L17.0195 16.4279C16.9825 16.4649 16.9454 16.5019 16.9084 16.5019C16.9084 16.5019 16.8714 16.5019 16.8344 16.4649L15.1322 15.4659C15.0212 15.3919 14.8732 15.3919 14.7622 15.4659C14.6512 15.5399 14.5771 15.6509 14.5771 15.7989V17.7599C14.5771 17.8339 14.5031 17.8709 14.4291 17.8709H13.652C13.578 17.8709 13.504 17.8339 13.504 17.7599V15.7619C13.504 15.6139 13.43 15.5029 13.319 15.4289C13.208 15.3549 13.06 15.3549 12.9489 15.4289L11.2097 16.4279C11.1727 16.4279 11.1357 16.4279 11.1357 16.4279C11.0987 16.4279 11.0617 16.3909 11.0617 16.3539L10.6916 15.6879C10.6546 15.6509 10.6546 15.6139 10.6546 15.6139C10.6916 15.6509 10.6916 15.6139 10.6916 15.6139ZM7.1762 35.0759C10.1366 33.9289 11.1357 32.1159 11.1357 30.1549V26.7509C11.1357 26.5659 10.9877 26.3809 10.8027 26.3809C9.5445 26.3069 8.39736 25.8999 7.36122 25.1969C7.25021 25.1229 7.06519 25.1229 6.95417 25.1969C5.91804 25.8999 4.77089 26.3069 3.51273 26.3809C3.32771 26.3809 3.17969 26.5659 3.17969 26.7509V30.1549C3.17969 32.5599 4.69688 34.1879 6.91717 35.0759C6.99118 35.1129 7.06519 35.1129 7.1762 35.0759ZM3.88278 30.1549V27.1209C5.06693 27.0099 6.14007 26.6029 7.13919 25.9739C8.13832 26.6029 9.21146 27.0099 10.3956 27.1209V30.1549C10.3956 32.3009 8.98943 33.5589 7.02818 34.3359C5.17794 33.5589 3.88278 32.1899 3.88278 30.1549Z" fill="#149ADE"/>
</svg>
