<svg width="11" height="20" viewBox="0 0 11 20" fill="none" xmlns="http://www.w3.org/2000/svg">
<path d="M10.4038 7.80249C10.3432 7.92402 10.2191 8.00086 10.0833 8.00086H7.27138L5.57447 18.8641C5.54729 19.0384 5.39715 19.167 5.2207 19.167H5.21783C5.04044 19.1655 4.89084 19.0344 4.86621 18.8587L3.33974 8.00086H0.358072C0.160309 8.00086 0 7.84055 0 7.64279C0 7.5653 0.0251367 7.48993 0.0716145 7.42794L4.9346 0.97691C5.05326 0.818714 5.2777 0.786631 5.4359 0.905296C5.46304 0.925671 5.48714 0.949768 5.50751 0.97691L10.3701 7.42794C10.4513 7.53637 10.4643 7.68132 10.4038 7.80249Z" fill="#14151A"/>
</svg>
