<svg width="18" height="14" viewBox="0 0 18 14" fill="none" xmlns="http://www.w3.org/2000/svg">
<path d="M16.9367 5.95789H2.11713C1.48201 5.95789 1.05859 5.5829 1.05859 5.02041C1.05859 4.45792 1.48201 4.08293 2.11713 4.08293H14.3962L11.9616 1.92673C11.5381 1.55173 11.5381 0.989244 11.9616 0.614252C12.385 0.23926 13.0201 0.23926 13.4435 0.614252L17.6777 4.36418C17.9952 4.64542 18.1011 5.02041 17.8894 5.3954C17.7835 5.7704 17.3601 5.95789 16.9367 5.95789Z" fill="#797C8A"/>
<path d="M5.29699 13.4579C4.97943 13.4579 4.76772 13.3641 4.55601 13.1766L0.321851 9.42673C0.00428906 9.14548 -0.101565 8.77049 0.110143 8.3955C0.321851 8.0205 0.639414 7.83301 1.06283 7.83301H15.8824C16.5175 7.83301 16.9409 8.208 16.9409 8.77049C16.9409 9.33298 16.5175 9.70797 15.8824 9.70797H3.60333L6.03797 11.8642C6.46139 12.2392 6.46139 12.8017 6.03797 13.1766C5.82626 13.3641 5.61456 13.4579 5.29699 13.4579Z" fill="#797C8A"/>
</svg>
