<svg width="20" height="20" viewBox="0 0 20 20" fill="none" xmlns="http://www.w3.org/2000/svg">
<path d="M14.375 0.0193873C14.2975 0.0193873 6.875 0 6.875 0C5.55249 0 4.37501 1.21313 4.37501 2.50001L3.65251 2.51689C2.33063 2.51689 1.25 3.71312 1.25 5V17.5C1.25 18.7869 2.42751 20 3.75001 20H13.125C14.4475 20 15.625 18.7869 15.625 17.5H16.25C17.5725 17.5 18.75 16.2869 18.75 15V5.01501L14.375 0.0193873ZM13.125 18.75H3.75001C3.09376 18.75 2.50002 18.1369 2.50002 17.5V5C2.50002 4.07001 3.26502 3.75001 4.37501 3.75001V15C4.37501 16.2869 5.55249 17.5 6.875 17.5C6.875 17.5 13.6512 17.4932 14.3806 17.4932C14.3806 18.2519 13.8832 18.75 13.125 18.75ZM14.375 13.1319H8.75001C8.40502 13.1319 8.12502 12.8525 8.12502 12.5075C8.12502 12.1625 8.40502 11.8831 8.75001 11.8831H14.375C14.72 11.8831 15 12.1625 15 12.5075C15 12.8525 14.72 13.1319 14.375 13.1319ZM14.375 10.01H8.75001C8.40502 10.01 8.12502 9.73061 8.12502 9.38564C8.12502 9.04064 8.40502 8.76127 8.75001 8.76127H14.375C14.72 8.76127 15 9.04064 15 9.38564C15 9.73001 14.72 10.01 14.375 10.01ZM15.625 5C14.9594 5 14.375 4.39939 14.375 3.75001C14.375 3.75001 14.375 2.48374 14.375 1.26938V1.26812L17.5 5H15.625Z" fill="#797C8A"/>
</svg>
