<svg width="11" height="8" viewBox="0 0 11 8" fill="#000000" xmlns="http://www.w3.org/2000/svg">
<path d="M10.0601 0.810581C10.0388 0.767552 10.0059 0.731319 9.96512 0.705953C9.92435 0.680587 9.87732 0.667095 9.82931 0.666992H0.256711C0.208697 0.667095 0.161664 0.680587 0.120897 0.705953C0.0801306 0.731319 0.0472472 0.767552 0.0259431 0.810581C0.00480686 0.853754 -0.00368058 0.902027 0.00146175 0.949821C0.00660408 0.997614 0.0251662 1.04298 0.0550027 1.08067L4.8413 7.23448C4.86509 7.26534 4.89565 7.29033 4.93062 7.30752C4.96559 7.32472 5.00404 7.33366 5.04301 7.33366C5.08198 7.33366 5.12043 7.32472 5.1554 7.30752C5.19036 7.29033 5.22092 7.26534 5.24472 7.23448L10.031 1.08067C10.0609 1.04298 10.0794 0.997614 10.0846 0.949821C10.0897 0.902027 10.0812 0.853754 10.0601 0.810581Z" fill="#000"/>
</svg>
