<svg width="20" height="20" viewBox="0 0 20 20" fill="none" xmlns="http://www.w3.org/2000/svg">
<path d="M9.41292 9.41253V5.85156H5.71292C5.51296 6.90217 5.38927 8.0902 5.3623 9.41253H9.41292Z" fill="#14151A"/>
<path d="M9.41273 4.67846V0.0341797C8.03886 0.376894 6.72576 1.94689 5.98242 4.67846H9.41273Z" fill="#14151A"/>
<path d="M4.1895 10.5869H0C0.0713368 11.8171 0.366193 13.0065 0.865511 14.1088H4.52126C4.32892 13.0244 4.21709 11.845 4.1895 10.5869Z" fill="#14151A"/>
<path d="M0 9.41253H4.18828C4.21309 8.13958 4.32423 6.94666 4.51848 5.85156H0.883511C0.373393 6.96478 0.0721585 8.16784 0 9.41253Z" fill="#14151A"/>
<path d="M10.5869 0.0390625V4.67846H14.007C13.7257 3.65564 13.3888 2.88608 13.0779 2.32415C12.3829 1.06791 11.5147 0.277686 10.5869 0.0390625Z" fill="#14151A"/>
<path d="M9.41261 10.5869H5.36328C5.39408 11.9561 5.52509 13.122 5.71261 14.1088H9.41265L9.41261 10.5869Z" fill="#14151A"/>
<path d="M14.105 1.75536C14.5685 2.59305 14.9413 3.57485 15.2195 4.67801H18.4801C18.0834 4.05101 17.6138 3.4629 17.0753 2.92445C15.9843 1.83335 14.6894 1.02485 13.2793 0.53418C13.5765 0.89145 13.8525 1.29897 14.105 1.75536Z" fill="#14151A"/>
<path d="M14.6364 9.41253C14.6051 8.02508 14.4709 6.84668 14.2794 5.85156H10.5869V9.41253H14.6364Z" fill="#14151A"/>
<path d="M15.2415 15.2832C14.9628 16.41 14.5854 17.4113 14.1135 18.2626C13.8667 18.7078 13.5973 19.106 13.3076 19.4564C14.7068 18.9647 15.9915 18.1597 17.0753 17.0759C17.6249 16.5263 18.1024 15.9248 18.5043 15.2832H15.2415Z" fill="#14151A"/>
<path d="M4.76807 4.67807C5.04583 3.56729 5.41981 2.57941 5.88622 1.73793C6.13302 1.29269 6.40244 0.894368 6.69221 0.543945C5.29302 1.03555 4.00814 1.84065 2.92431 2.92447C2.38586 3.46292 1.91629 4.05103 1.51953 4.67803L4.76807 4.67807Z" fill="#14151A"/>
<path d="M15.4717 5.85156C15.6684 6.9467 15.7828 8.13923 15.8108 9.41253H20.0001C19.928 8.16784 19.6267 6.96478 19.1166 5.85156H15.4717Z" fill="#14151A"/>
<path d="M5.8944 18.2452C5.42541 17.3976 5.04939 16.4023 4.77023 15.2832H1.49512C1.897 15.9248 2.37452 16.5263 2.92408 17.0759C4.01515 18.167 5.30997 18.9755 6.72008 19.4662C6.42291 19.1089 6.14688 18.7015 5.8944 18.2452Z" fill="#14151A"/>
<path d="M10.5869 10.5869V14.1088H14.2944C14.49 13.0678 14.6111 11.8929 14.6377 10.5869H10.5869Z" fill="#14151A"/>
<path d="M19.9998 10.5869H15.8116C15.7871 11.8448 15.6783 13.0244 15.4883 14.1088H19.1342C19.6335 13.0065 19.9284 11.8171 19.9998 10.5869Z" fill="#14151A"/>
<path d="M10.5869 15.2832V19.9667C11.9675 19.6223 13.2868 18.0392 14.0282 15.2832H10.5869Z" fill="#14151A"/>
<path d="M9.4132 19.9618V15.2832H5.98242C6.26589 16.3257 6.60739 17.1077 6.92224 17.6768C7.6173 18.933 8.48543 19.7231 9.4132 19.9618Z" fill="#14151A"/>
</svg>
