<svg width="18" height="20" viewBox="0 0 18 20" fill="none" xmlns="http://www.w3.org/2000/svg">
<path d="M17.3506 5.7627L10.8714 9.81664C10.2943 10.1777 9.6473 10.3582 9.0003 10.3582C8.3533 10.3582 7.7063 10.1777 7.12922 9.81664L0.650429 5.76292C0.632022 5.86666 0.62207 5.97287 0.62207 6.08062V7.68577L7.72455 12.1297C8.51147 12.622 9.48912 12.622 10.2761 12.1297L17.3786 7.68574V6.08062C17.3786 5.97243 17.3688 5.86625 17.3506 5.7627Z" fill="#14151A"/>
<path d="M9.0003 13.6228C8.3533 13.6228 7.7063 13.4423 7.12926 13.0812L0.62207 9.0098V10.9129L7.72455 15.3569C8.51147 15.8492 9.48912 15.8492 10.2761 15.3569L17.3786 10.913V9.00977L10.8714 13.0812C10.2943 13.4423 9.6473 13.6228 9.0003 13.6228Z" fill="#14151A"/>
<path d="M10.2754 8.86514L16.8115 4.77562C16.7388 4.70902 16.6606 4.64823 16.5766 4.5957L10.6709 0.900577C10.1557 0.5782 9.57766 0.416992 8.99968 0.416992C8.42167 0.416992 7.84366 0.5782 7.32842 0.900577L1.42275 4.5957C1.33842 4.64845 1.26019 4.70906 1.1875 4.77539L7.72387 8.86514C8.51082 9.35748 9.48854 9.35748 10.2754 8.86514Z" fill="#14151A"/>
<path d="M9.00033 16.8494C8.35333 16.8494 7.70633 16.6688 7.12926 16.3078L0.62207 12.2363V13.9197C0.62207 14.5293 0.926677 15.0938 1.42339 15.4046L7.32903 19.0997C7.84431 19.4221 8.42228 19.5833 9.0003 19.5833C9.57831 19.5833 10.1563 19.4221 10.6716 19.0997L16.5773 15.4046C17.074 15.0938 17.3786 14.5293 17.3786 13.9197V12.2364L10.8714 16.3078C10.2943 16.6688 9.64729 16.8494 9.00033 16.8494Z" fill="#14151A"/>
</svg>
