<svg width="18" height="18" viewBox="0 0 18 18" fill="none" xmlns="http://www.w3.org/2000/svg">
<path d="M9.6378 12.1855L7.08772 14.7357C7.08772 14.7357 7.08772 14.7357 7.08766 14.7357C7.08766 14.7357 7.08766 14.7358 7.0876 14.7358C6.03307 15.7904 4.31711 15.7905 3.26245 14.7358C2.75154 14.2249 2.47023 13.5456 2.47023 12.8232C2.47023 12.1008 2.75154 11.4216 3.26227 10.9107C3.26233 10.9107 3.26239 10.9106 3.26245 10.9105L5.81253 8.3604C6.16458 8.00829 6.16458 7.43738 5.81247 7.08533C5.46042 6.73328 4.88951 6.73328 4.5374 7.08533L1.98732 9.63547C1.98714 9.63565 1.98696 9.63589 1.98678 9.63607C1.13571 10.4874 0.666992 11.6193 0.666992 12.8232C0.666992 14.0273 1.13589 15.1594 1.98738 16.0109C2.86628 16.8897 4.02065 17.3292 5.17509 17.3292C6.32952 17.3292 7.48395 16.8897 8.36273 16.0109C8.36279 16.0109 8.36279 16.0108 8.36279 16.0108L10.9129 13.4606C11.2649 13.1086 11.2649 12.5377 10.9128 12.1855C10.5608 11.8335 9.98997 11.8335 9.6378 12.1855Z" fill="#400376"/>
<path d="M17.3334 5.17293C17.3334 3.96879 16.8644 2.83672 16.0129 1.98523C14.2552 0.227551 11.3952 0.227611 9.63759 1.98523C9.63753 1.98535 9.63741 1.98541 9.63735 1.98553L7.08733 4.53549C6.73521 4.88754 6.73521 5.4585 7.08733 5.81056C7.26344 5.98667 7.49414 6.07467 7.72489 6.07467C7.95559 6.07467 8.1864 5.98661 8.3624 5.81056L10.9124 3.2606C10.9125 3.26048 10.9126 3.26042 10.9127 3.2603C11.9672 2.20576 13.6832 2.2057 14.7379 3.2603C15.2487 3.77121 15.5301 4.45049 15.5301 5.17293C15.5301 5.89531 15.2488 6.57447 14.738 7.08538L14.7379 7.08557L12.1878 9.6357C11.8357 9.98776 11.8357 10.5587 12.1878 10.9108C12.3639 11.0868 12.5947 11.1749 12.8253 11.1749C13.0561 11.1749 13.2869 11.0868 13.4629 10.9108L16.013 8.36063C16.0132 8.36045 16.0134 8.36021 16.0135 8.36003C16.8646 7.50866 17.3334 6.37677 17.3334 5.17293Z" fill="#400376"/>
<path d="M5.81291 12.1863C5.98897 12.3623 6.21972 12.4504 6.45042 12.4504C6.68117 12.4504 6.91193 12.3623 7.08798 12.1863L12.1883 7.08598C12.5404 6.73393 12.5404 6.16303 12.1883 5.81091C11.8362 5.45886 11.2653 5.45886 10.9132 5.81091L5.81291 10.9111C5.4608 11.2633 5.4608 11.8342 5.81291 12.1863Z" fill="#400376"/>
</svg>
