<svg width="40" height="40" viewBox="0 0 40 40" fill="none" xmlns="http://www.w3.org/2000/svg">
<g clip-path="url(#clip0_1172_9932)">
<path fill-rule="evenodd" clip-rule="evenodd" d="M19.9997 0C26.6757 0 32.0877 5.41195 32.0877 12.088C32.0877 19.523 25.9819 27.7123 20.5385 32.2354C20.227 32.4942 19.7853 32.4944 19.4737 32.2356C14.0134 27.7027 7.91164 19.5631 7.91164 12.088C7.91172 5.41195 13.3237 0 19.9997 0ZM29.9968 29.5517C32.2719 30.047 34.1215 30.6961 35.3641 31.442C36.2684 31.9849 36.7801 32.505 36.7801 32.9538C36.7801 33.8812 35.1109 34.8715 32.4123 35.7226L32.4076 35.7241L32.407 35.7226C29.2516 36.7177 24.8664 37.3333 19.9997 37.3333C15.133 37.3333 10.7478 36.7177 7.59242 35.7226C7.57297 35.7165 7.55359 35.7109 7.53406 35.7057C4.8668 34.8584 3.21938 33.8752 3.21938 32.9539C3.21938 32.5052 3.73109 31.9852 4.63539 31.4423C5.87781 30.6964 7.7275 30.0474 10.0026 29.552C10.7217 29.3967 11.1788 28.6878 11.0234 27.9687C10.8681 27.2495 10.1592 26.7925 9.44008 26.9478C6.89406 27.5022 4.76852 28.2618 3.27078 29.161C1.535 30.2031 0.552734 31.4878 0.552734 32.9539C0.552734 35.1676 2.90898 37.0244 6.72367 38.2413C6.74563 38.2495 6.76789 38.2572 6.79039 38.2643C10.1907 39.3366 14.8625 40 19.9997 40C25.1369 40 29.8087 39.3366 33.2091 38.2642L33.2086 38.2627C37.0629 37.0462 39.4467 35.1805 39.4467 32.9538C39.4467 31.4877 38.4645 30.2029 36.7286 29.1608C35.2308 28.2616 33.1053 27.5019 30.5593 26.9476C29.8402 26.7923 29.1312 27.2493 28.9759 27.9684C28.8206 28.6875 29.2777 29.3964 29.9968 29.5517ZM19.9997 5.92195C16.5942 5.92195 13.8337 8.68258 13.8337 12.088C13.8337 15.4934 16.5943 18.2541 19.9997 18.2541C23.4051 18.2541 26.1657 15.4935 26.1657 12.088C26.1658 8.68258 23.4052 5.92195 19.9997 5.92195Z" fill="#2855DD"/>
</g>
<defs>
<clipPath id="clip0_1172_9932">
<rect width="40" height="40" fill="white"/>
</clipPath>
</defs>
</svg>
