<svg width="14" height="20" viewBox="0 0 14 20" fill="none" xmlns="http://www.w3.org/2000/svg">
<path d="M13.493 7.70801H12.3472V6.18022C12.3472 3.23174 9.94852 0.833008 7 0.833008C4.05148 0.833008 1.65279 3.23174 1.65279 6.18022V7.70801H0.506956C0.295837 7.70801 0.125 7.87884 0.125 8.08996V17.6386C0.125 18.4812 0.810173 19.1663 1.65279 19.1663H12.3472C13.1898 19.1663 13.875 18.4812 13.875 17.6385V8.08996C13.875 7.87884 13.7042 7.70801 13.493 7.70801ZM8.14361 15.6867C8.15554 15.7945 8.12088 15.9026 8.04851 15.9836C7.97614 16.0645 7.87245 16.1108 7.76391 16.1108H6.23612C6.12759 16.1108 6.02389 16.0645 5.95153 15.9836C5.87916 15.9027 5.84446 15.7945 5.85642 15.6867L6.09737 13.52C5.7061 13.2354 5.47225 12.7852 5.47225 12.2913C5.47225 11.4488 6.15742 10.7636 7.00004 10.7636C7.84265 10.7636 8.52783 11.4487 8.52783 12.2913C8.52783 12.7852 8.29397 13.2354 7.9027 13.52L8.14361 15.6867ZM10.0555 7.70801H3.94446V6.18022C3.94446 4.49541 5.3152 3.12467 7 3.12467C8.6848 3.12467 10.0555 4.49541 10.0555 6.18022V7.70801Z" fill="#14151A"/>
</svg>
