<svg width="12" height="12" viewBox="0 0 12 12" fill="none" xmlns="http://www.w3.org/2000/svg">
<path d="M10.792 4.95866H7.25033C7.13527 4.95866 7.04199 4.86538 7.04199 4.75033V1.20866C7.04199 0.633402 6.57558 0.166992 6.00033 0.166992C5.42507 0.166992 4.95866 0.633402 4.95866 1.20866V4.75033C4.95866 4.86538 4.86538 4.95866 4.75033 4.95866H1.20866C0.633402 4.95866 0.166992 5.42507 0.166992 6.00033C0.166992 6.57558 0.633402 7.04199 1.20866 7.04199H4.75033C4.86538 7.04199 4.95866 7.13527 4.95866 7.25033V10.792C4.95866 11.3672 5.42507 11.8337 6.00033 11.8337C6.57558 11.8337 7.04199 11.3672 7.04199 10.792V7.25033C7.04199 7.13527 7.13527 7.04199 7.25033 7.04199H10.792C11.3672 7.04199 11.8337 6.57558 11.8337 6.00033C11.8337 5.42507 11.3672 4.95866 10.792 4.95866Z" fill="white"/>
</svg>
