<svg xmlns="http://www.w3.org/2000/svg" xmlns:xlink="http://www.w3.org/1999/xlink" version="1.1" x="0px" y="0px" viewBox="0 0 90 112.5" enable-background="new 0 0 90 90" xml:space="preserve">
<path fill-rule="evenodd" clip-rule="evenodd" d="M46.99,16.985l1.557,2.552c-2.188,1.584-3.287,3.953-3.604,6.105  c-0.084,0.572,0.354,1.083,0.932,1.088h2.521c0.947,0,1.688,0.735,1.688,1.683v6.333c0,0.948-0.74,1.681-1.688,1.681H43  c-0.943,0-1.672-0.733-1.672-1.681v-7.464C41.328,23.226,43.641,19.22,46.99,16.985z M46.766,14.663  c-4.557,2.303-7.328,7.541-7.328,12.62c0,2.49,0,7.464,0,7.464c0,1.957,1.604,3.572,3.563,3.572h5.396  c1.963,0,3.572-1.609,3.572-3.572v-6.333c0-1.964-1.609-3.573-3.572-3.573h-1.371c0.475-1.574,1.5-3.197,3.287-4.177  c0.475-0.26,0.635-0.864,0.354-1.323l-2.672-4.333C47.635,14.428,47.25,14.419,46.766,14.663z"/>
    <path fill-rule="evenodd" clip-rule="evenodd" d="M31.725,16.985l1.557,2.552c-2.182,1.584-3.287,3.953-3.6,6.105  c-0.088,0.572,0.355,1.083,0.928,1.088h2.525c0.943,0,1.684,0.735,1.684,1.683v6.333c0,0.948-0.74,1.681-1.684,1.681H27.74  c-0.949,0-1.678-0.733-1.678-1.681v-7.464C26.063,23.226,28.381,19.22,31.725,16.985z M31.5,14.663  c-4.553,2.303-7.328,7.541-7.328,12.62c0,2.49,0,7.464,0,7.464c0,1.957,1.604,3.572,3.568,3.572h5.395  c1.959,0,3.574-1.609,3.574-3.572v-6.333c0-1.964-1.615-3.573-3.574-3.573h-1.369c0.469-1.574,1.5-3.197,3.281-4.177  c0.475-0.26,0.635-0.864,0.354-1.323l-2.672-4.333C32.369,14.428,31.984,14.419,31.5,14.663z"/>
    <path fill-rule="evenodd" clip-rule="evenodd" d="M21.053,24.84c-4.35,0-7.881,3.53-7.881,7.875v26.655  c0,4.345,3.531,7.876,7.881,7.876h17.838l5.344,6.75c1.885,2.379,5.568,1.12,5.568-1.588v-5.162h19.176  c4.35,0,7.871-3.532,7.871-7.876V32.715c0-4.345-3.521-7.875-7.871-7.875H55.094c-1.275-0.021-1.275,1.907,0,1.891h13.885  c3.334,0,5.98,2.651,5.98,5.984v26.655c0,3.333-2.646,5.986-5.98,5.986H48.859c-0.521,0-0.947,0.426-0.947,0.948v5.886  c0,1.645-1.594,1.396-2.23,0.593l-5.594-7.073c-0.176-0.224-0.453-0.353-0.738-0.353H21.053c-3.334,0-5.99-2.652-5.99-5.986V32.715  c0-3.328,2.656-5.984,5.99-5.984C22.328,26.747,22.328,24.819,21.053,24.84z"/>
    <path d="M26.979,46.439l1.434,2.917c0.141,0.276,0.406,0.473,0.719,0.514l3.188,0.464l-2.266,2.016  c-0.246,0.213-0.359,0.536-0.313,0.858l0.563,3.442l-2.881-1.509c-0.275-0.146-0.604-0.146-0.875,0l-2.881,1.505l0.553-3.438  c0.053-0.322-0.063-0.646-0.303-0.858l-2.266-2.016l3.188-0.464c0.309-0.047,0.574-0.238,0.709-0.514L26.979,46.439z M26.979,44.157  c-0.734,0-1.244,0.538-1.52,1.1l-1.387,2.812l-3.166,0.464c-0.318,0.047-0.6,0.109-0.885,0.26c-0.293,0.151-0.621,0.464-0.719,0.885  c-0.1,0.421,0.031,0.792,0.176,1.057c0.152,0.261,0.328,0.49,0.559,0.692l2.234,1.996l-0.512,3.17  c-0.057,0.333-0.082,0.631-0.051,0.939c0.031,0.312,0.129,0.682,0.441,0.973c0.313,0.297,0.777,0.38,1.1,0.338  c0.328-0.036,0.588-0.145,0.85-0.286l2.879-1.511l2.881,1.511c0.266,0.141,0.521,0.25,0.85,0.286  c0.328,0.042,0.785-0.041,1.098-0.338c0.313-0.292,0.412-0.662,0.443-0.973c0.031-0.308,0.006-0.605-0.053-0.939l-0.51-3.17l2.244-2  c0.23-0.209,0.402-0.428,0.547-0.688c0.152-0.265,0.287-0.636,0.188-1.057c-0.104-0.421-0.432-0.734-0.719-0.885  c-0.285-0.15-0.578-0.213-0.891-0.26l-3.166-0.464l-1.381-2.812C28.234,44.695,27.719,44.157,26.979,44.157z"/>
    <path d="M45.006,46.439l1.432,2.917c0.141,0.276,0.406,0.473,0.719,0.514l3.188,0.464l-2.266,2.016  c-0.244,0.213-0.359,0.536-0.313,0.858l0.563,3.442l-2.881-1.509c-0.27-0.146-0.598-0.146-0.875,0l-2.879,1.505l0.551-3.438  c0.053-0.322-0.063-0.646-0.301-0.858l-2.266-2.016l3.188-0.464c0.307-0.047,0.572-0.238,0.707-0.514L45.006,46.439z M45.006,44.157  c-0.734,0-1.246,0.538-1.521,1.1L42.1,48.069l-3.168,0.464c-0.316,0.047-0.598,0.109-0.885,0.26  c-0.287,0.151-0.615,0.464-0.719,0.885c-0.1,0.421,0.031,0.792,0.178,1.057c0.15,0.261,0.328,0.49,0.557,0.692l2.234,1.996  l-0.51,3.17c-0.059,0.333-0.084,0.631-0.053,0.939c0.037,0.312,0.131,0.682,0.443,0.973c0.313,0.297,0.775,0.38,1.104,0.338  c0.322-0.036,0.584-0.145,0.85-0.286l2.875-1.511l2.879,1.511c0.266,0.141,0.521,0.25,0.85,0.286c0.328,0.042,0.787-0.041,1.1-0.338  c0.313-0.292,0.41-0.662,0.441-0.973c0.037-0.308,0.006-0.605-0.051-0.939l-0.506-3.17l2.244-2c0.225-0.209,0.396-0.428,0.543-0.688  c0.15-0.265,0.285-0.636,0.188-1.057c-0.1-0.421-0.428-0.734-0.719-0.885c-0.287-0.15-0.578-0.213-0.891-0.26l-3.168-0.464  l-1.379-2.812C46.26,44.695,45.744,44.157,45.006,44.157z"/>
    <path d="M63.041,46.439l1.434,2.917c0.135,0.276,0.406,0.473,0.713,0.514l3.193,0.464l-2.271,2.016  c-0.24,0.213-0.359,0.536-0.307,0.858l0.563,3.442l-2.881-1.509c-0.275-0.146-0.604-0.146-0.881,0l-2.879,1.505l0.557-3.438  c0.053-0.322-0.063-0.646-0.303-0.858l-2.266-2.016l3.188-0.464c0.309-0.047,0.574-0.238,0.709-0.514L63.041,46.439z M63.041,44.157  c-0.738,0-1.244,0.538-1.52,1.1l-1.391,2.812l-3.168,0.464c-0.313,0.047-0.594,0.109-0.885,0.26  c-0.287,0.151-0.615,0.464-0.713,0.885c-0.1,0.421,0.025,0.792,0.176,1.057c0.146,0.261,0.324,0.49,0.553,0.692l2.24,1.996  l-0.512,3.17c-0.057,0.333-0.082,0.631-0.051,0.939c0.031,0.312,0.129,0.682,0.441,0.973c0.313,0.297,0.771,0.38,1.1,0.338  c0.328-0.036,0.584-0.145,0.85-0.286l2.879-1.511l2.881,1.511c0.26,0.141,0.521,0.25,0.85,0.286  c0.322,0.042,0.785-0.041,1.098-0.338c0.313-0.292,0.412-0.662,0.443-0.973c0.031-0.308,0-0.605-0.053-0.939l-0.51-3.17l2.244-2  c0.23-0.209,0.396-0.428,0.547-0.688c0.146-0.265,0.281-0.636,0.184-1.057c-0.1-0.421-0.428-0.734-0.715-0.885  c-0.291-0.15-0.578-0.213-0.895-0.26l-3.168-0.464l-1.379-2.812C64.291,44.695,63.775,44.157,63.041,44.157z"/>
</svg>
