<svg width="41" height="40" viewBox="0 0 41 40" fill="none" xmlns="http://www.w3.org/2000/svg">
<g clip-path="url(#clip0_1172_9926)">
<path d="M20.0484 19.2681C22.6955 19.2681 24.9877 18.3187 26.8605 16.4456C28.7334 14.5727 29.6828 12.2811 29.6828 9.63375C29.6828 6.98728 28.7334 4.69542 26.8602 2.82195C24.9871 0.949398 22.6952 0 20.0484 0C17.401 0 15.1095 0.949398 13.2366 2.82225C11.3638 4.69511 10.4141 6.98697 10.4141 9.63375C10.4141 12.2811 11.3638 14.573 13.2369 16.4459C15.1101 18.3184 17.4019 19.2681 20.0484 19.2681Z" fill="#2B2E38"/>
<path d="M36.9064 30.7577C36.8524 29.9783 36.7431 29.1281 36.5823 28.2303C36.42 27.3257 36.2109 26.4706 35.9607 25.6891C35.7022 24.8813 35.3506 24.0835 34.9161 23.3191C34.465 22.5256 33.9352 21.8347 33.3408 21.2662C32.7191 20.6714 31.958 20.1932 31.0779 19.8444C30.2008 19.4974 29.2288 19.3216 28.1891 19.3216C27.7808 19.3216 27.3859 19.4891 26.6233 19.9857C26.1539 20.2917 25.6049 20.6457 24.9921 21.0373C24.4681 21.3711 23.7583 21.684 22.8815 21.9672C22.0261 22.2439 21.1576 22.3843 20.3003 22.3843C19.4431 22.3843 18.5749 22.2439 17.7186 21.9672C16.8427 21.6843 16.1329 21.3715 15.6095 21.0376C15.0025 20.6497 14.4532 20.2957 13.9768 19.9853C13.2151 19.4888 12.8199 19.3213 12.4116 19.3213C11.3716 19.3213 10.3999 19.4974 9.52311 19.8447C8.6436 20.1929 7.88218 20.6711 7.25993 21.2665C6.66576 21.8353 6.13567 22.5259 5.68523 23.3191C5.25097 24.0835 4.89941 24.881 4.64062 25.6894C4.39068 26.4709 4.18164 27.3257 4.01929 28.2303C3.85846 29.1269 3.74921 29.9774 3.69519 30.7586C3.64209 31.524 3.61523 32.3184 3.61523 33.1207C3.61523 35.2087 4.27899 36.899 5.58788 38.1457C6.8806 39.3758 8.5911 39.9999 10.6712 39.9999H29.9313C32.0114 39.9999 33.7213 39.3761 35.0143 38.1457C36.3235 36.9 36.9873 35.2093 36.9873 33.1204C36.987 32.3144 36.9598 31.5194 36.9064 30.7577Z" fill="#2B2E38"/>
</g>
<defs>
<clipPath id="clip0_1172_9926">
<rect width="39.9998" height="40" fill="white" transform="translate(0.333984)"/>
</clipPath>
</defs>
</svg>
