<svg width="16" height="20" viewBox="0 0 16 20" fill="none" xmlns="http://www.w3.org/2000/svg">
<path d="M12.313 2.56787C12.313 1.6111 11.5389 0.833008 10.5864 0.833008H1.92389C0.971777 0.833008 0.197266 1.6111 0.197266 2.56787V3.2679H12.313V2.56787Z" fill="#14151A"/>
<path d="M11.7781 15.7296C11.6717 15.7296 11.3917 15.7142 11.0924 15.5717C9.68441 14.9024 8.75127 13.8057 8.61986 13.646C7.93773 12.8457 7.42461 11.9097 7.09411 10.8645C6.61787 9.35661 6.68232 8.10443 6.69128 7.96693C6.69128 7.9655 6.69128 7.96406 6.69163 7.96299C6.72565 7.46276 6.99886 7.00407 7.4221 6.73659L10.938 4.5126C11.0533 4.43955 11.1765 4.38226 11.3054 4.3418H0.197266V17.4312C0.197266 18.3879 0.971777 19.166 1.92389 19.166H10.5864C11.5389 19.166 12.313 18.3879 12.313 17.4312V15.6343C12.0738 15.7188 11.8665 15.7296 11.7781 15.7296ZM3.23802 17.0176C2.94118 17.0176 2.70091 16.777 2.70091 16.4805C2.70091 16.184 2.94118 15.9434 3.23802 15.9434C3.53451 15.9434 3.77513 16.184 3.77513 16.4805C3.77513 16.777 3.53451 17.0176 3.23802 17.0176ZM7.18112 17.0176H5.37393C5.07565 17.0176 4.83001 16.7752 4.83001 16.4805C4.83001 16.1858 5.07565 15.9434 5.37393 15.9434H7.18112C7.47975 15.9434 7.72539 16.1858 7.72539 16.4805C7.72539 16.7752 7.47975 17.0176 7.18112 17.0176ZM9.36859 17.0176C9.0721 17.0176 8.83148 16.777 8.83148 16.4805C8.83148 16.184 9.0721 15.9434 9.36859 15.9434C9.66543 15.9434 9.9057 16.184 9.9057 16.4805C9.9057 16.777 9.66543 17.0176 9.36859 17.0176Z" fill="#14151A"/>
<path d="M15.793 8.03646C15.7822 7.87568 15.6956 7.73031 15.5602 7.64473L12.0443 5.42109C11.963 5.36953 11.871 5.34375 11.7782 5.34375C11.6859 5.34375 11.5935 5.36917 11.5122 5.42109L7.99628 7.64473C7.86092 7.73031 7.77427 7.87568 7.76353 8.03646C7.67208 9.2422 8.16743 11.5511 9.44504 12.9582C9.44504 12.9582 10.2711 13.9923 11.5537 14.6021C11.6665 14.6558 11.7782 14.6558 11.7782 14.6558C11.7782 14.6558 11.89 14.6558 12.0031 14.6021C13.2854 13.9923 14.1114 12.9582 14.1114 12.9582C15.3875 11.555 15.8856 9.23969 15.793 8.03646ZM13.2385 9.69541L11.8796 11.064C11.8 11.1444 11.6605 11.2224 11.5029 11.2212C11.287 11.2212 11.1509 11.089 11.1255 11.064L10.318 10.2504C10.1114 10.042 10.1114 9.69935 10.318 9.49095C10.5246 9.28255 10.8655 9.28255 11.0721 9.49095L11.5029 9.92458L12.4844 8.93558C12.6913 8.72718 13.0319 8.72718 13.2385 8.93558C13.4454 9.14398 13.4454 9.48701 13.2385 9.69541Z" fill="#14151A"/>
</svg>
