<svg width="41" height="40" viewBox="0 0 41 40" fill="none" xmlns="http://www.w3.org/2000/svg">
<path d="M21.7491 39.8707C43.5064 38.6221 47.5513 7.98059 26.9067 1.09981C21.194 -0.812068 14.644 0.0575417 9.64624 3.42887H9.64764C7.33144 4.96889 5.36378 6.97734 3.87159 9.32465C2.37941 11.672 1.39585 14.306 0.984364 17.0568L0.983114 17.056C-0.974933 29.3354 9.3285 40.6828 21.7491 39.8707ZM37.852 27.2594C37.1418 28.9409 36.1872 30.5084 35.0191 31.9111C34.9367 31.4195 35.1642 30.85 34.8252 30.3912C34.4574 29.6741 34.1167 28.9425 33.7334 28.2339C33.5909 27.9704 33.6302 27.819 33.8402 27.6293C36.0896 25.6557 34.0844 26.705 34.3053 23.8842C34.3133 23.8079 34.2982 23.7311 34.262 23.6635C34.2257 23.596 34.1701 23.5408 34.1022 23.5053C33.0359 22.8245 31.644 22.5907 30.5421 23.3472C29.1688 23.9963 27.21 23.4998 26.7658 21.9236C26.3729 20.8758 26.4211 19.8178 26.4108 18.7478C26.4741 18.1707 27.2657 18.0739 27.1373 17.4069C27.1678 16.56 26.8918 15.6661 27.6926 15.1133C27.754 15.0592 27.8271 15.0201 27.9062 14.9991C27.9853 14.9781 28.0682 14.9759 28.1483 14.9926C28.8801 15.0811 29.6197 14.9087 30.2368 14.5056C30.8912 14.0907 31.6993 14.3593 32.4243 14.2648C32.7698 14.2402 33.0258 14.3417 33.2386 14.6107C33.6569 15.1388 34.3112 15.2939 34.8608 15.6147C35.0458 15.7225 35.1451 15.5865 35.2318 15.4747C35.6936 14.8789 36.4013 14.6787 37.0219 14.3361C37.3598 14.1425 38.0375 14.8818 38.6144 14.9081C39.764 18.932 39.4972 23.4114 37.852 27.2594ZM37.5818 12.1361C36.8929 12.2267 37.3562 11.5722 37.0006 11.2298C36.6436 10.9112 36.304 10.5736 35.9833 10.2184C35.8173 10.0411 35.7098 10.0125 35.5179 10.202C35.0023 10.7122 35.0312 10.658 35.6325 11.2676C36.3345 12.0393 36.8637 12.0264 35.5934 12.5627C35.3044 12.6929 35.0314 12.9894 34.7159 12.5609C34.525 12.3016 34.2651 12.1274 34.2959 11.7279C34.3433 11.112 33.8734 10.6654 33.656 10.1336C33.5911 9.97496 33.4763 10.0868 33.4151 10.1649C32.9577 10.753 32.2667 10.9804 31.6408 11.3071C30.5596 12.2524 30.8064 12.1494 29.3717 12.1083C29.2389 12.114 29.1998 11.9539 29.1422 11.8603C28.4198 10.6776 28.5598 10.3893 29.3083 9.27285C29.5836 9.1077 30.8 9.29832 31.0299 9.53848C31.1333 9.64629 31.2181 9.77192 31.3673 9.95989C31.4819 9.50207 31.4238 9.15129 31.4357 8.80575C31.6296 7.38785 32.821 8.02684 33.6668 7.71887C34.0666 7.41332 34.2306 7.26121 34.1458 7.11129C35.5598 8.58581 36.7207 10.2835 37.5818 12.1361ZM34.0301 6.99262C33.4529 6.61676 32.1704 6.22051 32.1362 5.29176C32.8059 5.81454 33.4387 6.38284 34.0301 6.99262ZM7.47968 6.81293C8.55582 5.73523 9.75985 4.79332 11.0649 4.00824C11.5087 4.23481 11.8254 5.06832 12.3821 4.77215C12.9758 4.46059 13.6087 4.21348 14.0349 3.65637C14.2764 3.36301 14.699 3.58754 15.0144 3.49856C16.2544 3.33067 16.5896 4.74254 17.0534 5.58246C17.0125 5.61692 16.9909 5.64996 16.9731 5.64793C15.8972 5.52653 14.9106 5.87199 13.9355 6.24746C13.6152 6.37082 13.3683 6.38129 13.168 6.07285C12.9203 5.69145 12.6021 5.68043 12.207 5.84496C11.8411 6.10364 10.5263 6.14832 10.6172 6.66746C10.7064 7.1552 10.3213 7.98653 11.1968 7.82035C11.607 7.67762 11.9597 8.88989 12.2104 8.19293C12.7483 6.01325 15.0163 7.91535 16.7651 6.52262C17.4084 6.1409 17.9376 7.39825 18.1876 7.84114C18.3776 8.25668 18.515 8.7459 19.183 8.60098C18.7641 9.02004 18.3423 9.43629 17.9281 9.85989C17.808 9.98278 17.6987 9.9434 17.5638 9.89653C17.043 9.71574 16.5151 9.55504 15.9962 9.36918C15.7486 9.28051 15.6298 9.27184 15.6355 9.60356C16.0592 11.8848 14.1158 9.68465 12.7662 11.3954C11.0822 13.0879 12.3855 14.5082 10.0709 16.2875C9.93257 16.4146 9.81765 16.4299 9.68085 16.3294C8.67538 15.6157 6.41632 15.2279 5.66522 16.3946C5.65445 16.4297 5.65182 16.4669 5.65753 16.5032C5.66324 16.5395 5.67715 16.574 5.69819 16.6042C6.10046 17.2489 6.13202 18.3337 6.89577 17.2522C7.12311 17.0584 7.39014 17.1236 7.62296 17.1623C7.86788 17.203 7.74624 17.4624 7.74014 17.6132C7.77475 18.2148 8.64007 18.322 8.46983 18.9992C8.37272 19.4891 8.98983 19.2183 9.261 19.3005C9.69936 19.3637 10.0319 19.2171 10.313 18.8747C10.5261 18.6151 11.7494 18.4387 12.0312 18.6057C12.2545 18.8308 12.3483 19.1825 12.5086 19.4573C12.7749 19.9917 12.7864 20.0025 13.1784 19.5801C14.0792 18.873 15.3454 19.4325 16.2025 19.9235C16.8758 20.3007 16.6534 21.6472 17.6565 21.4537C17.8491 21.4082 17.9533 21.5724 18.059 21.6914C18.7876 22.5827 19.964 22.4761 20.3949 23.6983C20.6726 24.2081 20.6429 24.6549 20.4069 25.1593C20.2393 26.1066 19.7734 26.8046 18.7898 27.07C18.0098 27.3501 19.3257 28.6228 17.5403 29.1303C17.0824 29.23 17.0231 29.5807 17.0824 29.9919C17.2718 31.0511 17.0146 31.8505 15.8496 32.1296C15.5051 32.2434 15.5665 32.7015 15.403 32.9626C14.5992 34.4275 15.3298 35.4961 16.3534 36.522C15.455 36.575 14.4813 36.6664 14.1708 35.6992C13.7828 34.5724 13.4317 33.4358 12.8564 32.3824C12.6632 32.0286 12.7876 31.6176 12.7826 31.2339C12.6423 29.6642 11.0394 28.4893 11.3405 26.8167C11.4572 25.9789 10.2623 27.1753 9.02522 25.6507C8.61288 25.1615 7.65343 23.9793 7.81913 23.3666C8.1578 22.5224 8.1935 21.504 8.97538 20.9181C9.30843 20.6592 9.33874 19.8518 8.71757 20.0084C7.12194 20.2754 7.46288 19.0764 6.52835 19.304C5.89554 19.3714 5.43874 19.1639 4.94694 18.7212C3.47147 17.3642 3.0485 18.3697 2.20311 17.3636C2.77044 13.3673 4.6225 9.66403 7.47968 6.81293Z" fill="#7405D6"/>
</svg>
