<svg width="225" height="242" viewBox="0 0 225 242" fill="none" xmlns="http://www.w3.org/2000/svg">
<path d="M10.7595 190.028H7.55481V81.6191H10.7595V190.028Z" fill="#772C20"/>
<path d="M10.7595 190.028H7.55481V81.6191H10.7595V190.028Z" stroke="#772C20" stroke-width="0.17064" stroke-miterlimit="10"/>
<path d="M79.884 137.243H76.6793V28.834H79.884V137.243Z" fill="#772C20"/>
<path d="M79.884 137.243H76.6793V28.834H79.884V137.243Z" stroke="#772C20" stroke-width="0.17064" stroke-miterlimit="10"/>
<path d="M149.008 215.022H145.803V106.613H149.008V215.022Z" fill="#772C20"/>
<path d="M149.008 215.022H145.803V106.613H149.008V215.022Z" stroke="#772C20" stroke-width="0.17064" stroke-miterlimit="10"/>
<path d="M218.132 122.712H214.928V14.3027H218.132V122.712Z" fill="#772C20"/>
<path d="M218.132 122.712H214.928V14.3027H218.132V122.712Z" stroke="#772C20" stroke-width="0.17064" stroke-miterlimit="10"/>
<path d="M17.3145 163.674H1V95.6113H17.3145V163.674Z" fill="#772C20"/>
<path d="M17.3145 163.674H1V95.6113H17.3145V163.674Z" stroke="#772C20" stroke-width="0.156295" stroke-miterlimit="10"/>
<path d="M86.4389 123.606H70.1244V42.4766H86.4389V123.606Z" fill="#772C20"/>
<path d="M86.4389 123.606H70.1244V42.4766H86.4389V123.606Z" stroke="#772C20" stroke-width="0.17064" stroke-miterlimit="10"/>
<path d="M155.563 199.168H139.249V120.344H155.563V199.168Z" fill="#772C20"/>
<path d="M155.563 199.168H139.249V120.344H155.563V199.168Z" stroke="#772C20" stroke-width="0.168198" stroke-miterlimit="10"/>
<path d="M224.687 99.3406H208.373V28.2148H224.687V99.3406Z" fill="#772C20"/>
<path d="M224.687 99.3406H208.373V28.2148H224.687V99.3406Z" stroke="#772C20" stroke-width="0.159774" stroke-miterlimit="10"/>
<path d="M46.1445 231.412H41.2942V67.334H46.1445V231.412Z" fill="#32625B"/>
<path d="M46.1445 231.412H41.2942V67.334H46.1445V231.412Z" stroke="#32625B" stroke-width="0.17064" stroke-miterlimit="10"/>
<path d="M115.269 165.078H110.419V1H115.269V165.078Z" fill="#32625B"/>
<path d="M115.269 165.078H110.419V1H115.269V165.078Z" stroke="#32625B" stroke-width="0.17064" stroke-miterlimit="10"/>
<path d="M184.393 241H179.543V76.9219H184.393V241Z" fill="#32625B"/>
<path d="M184.393 241H179.543V76.9219H184.393V241Z" stroke="#32625B" stroke-width="0.17064" stroke-miterlimit="10"/>
<path d="M56.0655 210.875H31.3733V108.404H56.0655V210.875Z" fill="#32625B"/>
<path d="M56.0655 210.875H31.3733V108.404H56.0655V210.875Z" stroke="#32625B" stroke-width="0.155883" stroke-miterlimit="10"/>
<path d="M125.19 144.428H100.497V21.793H125.19V144.428Z" fill="#32625B"/>
<path d="M125.19 144.428H100.497V21.793H125.19V144.428Z" stroke="#32625B" stroke-width="0.170533" stroke-miterlimit="10"/>
<path d="M194.314 220.755H169.622V132.139H194.314V220.755Z" fill="#32625B"/>
<path d="M194.314 220.755H169.622V132.139H194.314V220.755Z" stroke="#32625B" stroke-width="0.144963" stroke-miterlimit="10"/>
</svg>
