<svg width="24" height="24" viewBox="0 0 24 24" fill="none" xmlns="http://www.w3.org/2000/svg">
<g clip-path="url(#clip0_980_5110)">
<path d="M12 0C5.38293 0 0 5.38293 0 12C0 18.6171 5.38293 24 12 24C18.6171 24 24 18.6171 24 12C24 5.38293 18.6171 0 12 0Z" fill="url(#paint0_linear_980_5110)"/>
<path d="M18.0823 9.45703L11.5822 15.9569C11.3872 16.1519 11.1312 16.2501 10.8752 16.2501C10.6193 16.2501 10.3633 16.1519 10.1683 15.9569L6.91833 12.707C6.52722 12.316 6.52722 11.684 6.91833 11.293C7.30927 10.9019 7.94116 10.9019 8.33228 11.293L10.8752 13.836L16.6683 8.04309C17.0593 7.65198 17.6912 7.65198 18.0823 8.04309C18.4732 8.43402 18.4732 9.06592 18.0823 9.45703Z" fill="#FAFAFA"/>
</g>
<defs>
<linearGradient id="paint0_linear_980_5110" x1="24" y1="-1.1732e-05" x2="-1.3689" y2="1.54664" gradientUnits="userSpaceOnUse">
<stop stop-color="#484F63"/>
<stop offset="1" stop-color="#14151A"/>
</linearGradient>
<clipPath id="clip0_980_5110">
<rect width="24" height="24" fill="white"/>
</clipPath>
</defs>
</svg>
